<?xml version="1.0" encoding="utf-8"?>
<!-- Generator: Adobe Illustrator 18.1.1, SVG Export Plug-In . SVG Version: 6.00 Build 0)  -->
<svg version="1.1" xmlns="http://www.w3.org/2000/svg" xmlns:xlink="http://www.w3.org/1999/xlink" x="0px" y="0px"
	 viewBox="0 0 200 200" enable-background="new 0 0 200 200" xml:space="preserve">
<symbol  id="Footer_Menu" viewBox="-320.5 -40.5 641 91">
	<linearGradient id="SVGID_1_" gradientUnits="userSpaceOnUse" x1="-2.019988e-09" y1="-40" x2="2.020706e-09" y2="50">
		<stop  offset="0" style="stop-color:#2B2B2B"/>
		<stop  offset="1" style="stop-color:#0F0F0F"/>
	</linearGradient>
	<polygon fill="url(#SVGID_1_)" stroke="#000000" stroke-miterlimit="10" points="320,-40 -320,-40 -320,50 320,50 	"/>
	<path fill="#FFFFFF" d="M271.6,35c-16.5,0-30-13.5-30-30c0-7.7,2.9-15.1,8.2-20.7c0,0,0,0,0,0l0,0c0,0,0,0,0,0c0,0,0,0,0,0
		c0,0,0,0,0,0c0,0,0,0,0,0c0,0,0,0,0,0c0,0,0,0,0,0c0,0,0,0,0,0c0,0,0,0,0,0l0,0c0,0,0,0,0,0c0,0,0,0,0,0v0c0,0,0,0,0,0c0,0,0,0,0,0
		c0,0,0,0,0,0c5.8-5.8,13.9-9.3,21.7-9.3c7.9,0,16,3.5,21.7,9.3c0,0,0,0,0,0c5.3,5.6,8.3,12.9,8.3,20.7
		C301.6,21.5,288.2,35,271.6,35z M292.4-13.7c-1.4,0.7-4.3,1.8-9.2,3.5c-1.9,0.7-3.8,1.3-5.6,2v5c1.2,0.7,3.5,2.6,3.8,7.4
		c0.4,0.2,0.8,0.6,1.1,1.1c0.3,0.6,0.5,1.4,0.5,2.2c0,1.5-0.5,2.6-1.4,3.2c0,0,0,0.1,0,0.1c0.6,1.9,1.7,5.4,1,8.3
		c-0.8,3.4-5.5,4.5-9.2,4.5c-3.4,0-7.5-1-8.8-3.7c-1.8,0.1-2.7-0.6-3.2-1.2c-1.5-2-0.5-5.9,0.1-7.9c0,0,0-0.1,0-0.1
		c-0.8-0.5-1.4-1.7-1.4-3.2c0-1.6,0.6-2.8,1.6-3.3c0.2-4.8,2.6-6.7,3.8-7.4v-5c-1.6-0.6-3.4-1.2-5.1-1.7c-3.7-1.2-7.3-2.4-9.7-3.8
		C246.2-8.6,243.6-2,243.6,5c0,15.4,12.6,28,28,28s28-12.6,28-28C299.6-1.9,297.1-8.6,292.4-13.7z"/>
	<g>
		<g>
			<path fill="#FFFFFF" d="M-74.4,6c2.3,0,4.2,1.9,4.2,4.2s-1.9,4.2-4.2,4.2c-2.3,0-4.2-1.9-4.2-4.2S-76.7,6-74.4,6z"/>
			<path fill="#FFFFFF" d="M-81.1,4.6V3.9c0-4.3,0.3-8.9,4-10.2v-7.3h5.6v7.3c3.9,1.2,4.2,5.9,4.2,10.2v0.7H-81.1z"/>
			<path fill="#FFFFFF" d="M-88.4,20c2.3,0,4.2,1.9,4.2,4.2s-1.9,4.2-4.2,4.2c-2.3,0-4.2-1.9-4.2-4.2S-90.7,20-88.4,20z"/>
			<path fill="#FFFFFF" d="M-95.1,17.9c0-4.4,0.3-9.1,4-10.3V0.4h5.6v7.2c3.9,1.2,4.2,6,4.2,10.3v0.7h-13.8V17.9z"/>
			<path fill="#FFFFFF" d="M-102.4,6c2.3,0,4.2,1.9,4.2,4.2s-1.9,4.2-4.2,4.2c-2.3,0-4.2-1.9-4.2-4.2S-104.7,6-102.4,6z"/>
			<path fill="#FFFFFF" d="M-109.4,3.9c0-4.2,0.5-9.1,4.2-10.3v-7.2h5.6v7.2c4,1.3,4,6.3,4,10.3v0.7h-13.8V3.9z"/>
		</g>
		<path fill="none" stroke="#FFFFFF" stroke-width="2" stroke-miterlimit="10" d="M-58.4,5c0-16.6-13.4-30-30-30s-30,13.4-30,30
			s13.4,30,30,30S-58.4,21.6-58.4,5z"/>
	</g>
	<g>
		<path fill="#FFFFFF" d="M91.6,26c-8.1,0-14.7-6.6-14.7-14.7c0-7.9,13.6-26.2,14.1-27c0.1-0.2,0.3-0.3,0.6-0.3s0.4,0.1,0.6,0.3
			c0.6,0.8,14.1,19.1,14.1,27C106.3,19.4,99.7,26,91.6,26z M91.6,5c-3.5,0-6.3,2.8-6.3,6.3s2.8,6.3,6.3,6.3s6.3-2.8,6.3-6.3
			S95.1,5,91.6,5z"/>
		<path fill="none" stroke="#FFFFFF" stroke-width="2" stroke-miterlimit="10" d="M121.6,5c0-16.6-13.4-30-30-30s-30,13.4-30,30
			s13.4,30,30,30S121.6,21.6,121.6,5z"/>
	</g>
	<g>
		<g>
			<path fill="#FFFFFF" d="M-248.1,21.1H-274c-0.4,0-0.7-0.3-0.7-0.7V0.1c3.5,0,6.3-2.8,6.3-6.3h7c0,3.5,2.8,6.3,6.3,6.3
				c3.5,0,6.3-2.8,6.3-6.3h0.7c0.4,0,0.7,0.3,0.7,0.7v25.9C-247.4,20.8-247.7,21.1-248.1,21.1z"/>
			<path fill="#FFFFFF" d="M-276.1-0.1v13.5c0,0.4-0.3,0.7-0.7,0.7h-6.3c-3.5,0-6.3-2.8-6.3-6.3V-2.7h9.1c0.1,0,0.2,0,0.3-0.1
				C-279.1-1.4-277.7-0.4-276.1-0.1z M-282.4,8.5c-0.8,0-1.4-0.6-1.4-1.4V3.6c0-0.4-0.3-0.7-0.7-0.7c-0.4,0-0.7,0.3-0.7,0.7v3.5
				c0,1.5,1.3,2.8,2.8,2.8h3.5c0.4,0,0.7-0.3,0.7-0.7c0-0.4-0.3-0.7-0.7-0.7H-282.4z"/>
			<path fill="#FFFFFF" d="M-289.4-4.1v-3.5c0-0.4,0.3-0.7,0.7-0.7h8.1c-0.2,0.7-0.4,1.4-0.4,2.1s0.1,1.4,0.4,2.1H-289.4z"/>
			<path fill="#FFFFFF" d="M-255.1-1.3c-2.7,0-4.9-2.2-4.9-4.9s2.2-4.9,4.9-4.9s4.9,2.2,4.9,4.9S-252.4-1.3-255.1-1.3z"/>
			<path fill="#FFFFFF" d="M-274.7-1.3c-2.7,0-4.9-2.2-4.9-4.9s2.2-4.9,4.9-4.9c2.7,0,4.9,2.2,4.9,4.9S-272-1.3-274.7-1.3z"/>
		</g>
		<path fill="none" stroke="#FFFFFF" stroke-width="2" stroke-miterlimit="10" d="M-238.4,5c0-16.6-13.4-30-30-30s-30,13.4-30,30
			s13.4,30,30,30S-238.4,21.6-238.4,5z"/>
		<text transform="matrix(1 0 0 -1 -272.8584 6.459)" fill="#303030" font-family="'MyriadPro-Regular'" font-size="9.7783">home</text>
	</g>
</symbol>
<g id="Layer_2" display="none">
	<rect x="927.3" y="-310.9" display="inline" fill="#DBDBDD" width="640" height="1137.4"/>
</g>
<g id="Layer_1">
	<linearGradient id="SVGID_2_" gradientUnits="userSpaceOnUse" x1="2006.3142" y1="-230.196" x2="2006.3142" y2="-310.196">
		<stop  offset="0" style="stop-color:#0071BC"/>
		<stop  offset="1" style="stop-color:#29ABE2"/>
	</linearGradient>
	<rect x="1686.3" y="-310.2" fill="url(#SVGID_2_)" stroke="#000000" stroke-miterlimit="10" width="640" height="80"/>
	<path fill="#C9C9C9" d="M1998.3-137.5c-55.1,0-100,44.9-100,100c0,25.7,9.8,50.2,27.5,68.8c0,0,0,0,0,0l0,0c0,0,0,0,0,0
		c0,0,0,0,0,0c0,0,0,0,0,0c0,0,0,0,0,0c0,0,0,0,0,0c0,0,0,0,0,0c0,0,0,0,0,0c0,0,0,0,0,0l0,0c0,0,0,0,0,0c0,0,0,0,0,0v0c0,0,0,0,0,0
		c0,0,0,0,0,0c0,0,0,0,0,0c19.2,19.4,46.3,31,72.4,31c26.2,0,53.2-11.6,72.4-31c0,0,0,0,0-0.1c17.8-18.7,27.6-43.2,27.6-68.9
		C2098.3-92.6,2053.5-137.5,1998.3-137.5z M2067.7,24.9c-4.7-2.5-14.2-5.9-30.7-11.8c-6.2-2.2-12.7-4.5-18.6-6.7v-16.6
		c4-2.3,11.8-8.8,12.5-24.7c1.4-0.7,2.7-1.9,3.6-3.6c1.1-2,1.7-4.6,1.7-7.4c0-4.9-1.7-8.7-4.5-10.5c0-0.1,0.1-0.3,0.1-0.4
		c2-6.2,5.7-17.9,3.3-27.7c-2.8-11.2-18.2-15.1-30.6-15.1c-11.2,0-25,3.3-29.5,12.3c-5.8-0.5-9.1,2-10.7,4.1
		c-5.1,6.8-1.5,19.6,0.4,26.5c0,0.1,0.1,0.2,0.1,0.4c-2.8,1.8-4.6,5.7-4.6,10.6c0,5.3,2.1,9.4,5.3,11c0.8,15.9,8.6,22.4,12.5,24.7
		V6.4c-5.4,2-11.3,3.9-16.9,5.7c-12.5,4.1-24.3,8-32.3,12.7c-15.4-17.2-23.9-39.2-23.9-62.4c0-51.5,41.9-93.3,93.3-93.3
		c51.5,0,93.3,41.9,93.3,93.3C2091.6-14.3,2083.2,7.7,2067.7,24.9z"/>
	<text transform="matrix(1 0 0 1 1849.302 -166.2898)" fill="#767677" font-family="'PTSans-Regular'" font-size="45.75">my pioneer road</text>
	<text transform="matrix(1 0 0 1 1894.1924 197.9654)" font-family="'MyriadPro-Regular'" font-size="44.25">view my own profile</text>
	<rect x="1707.9" y="90.6" fill="none" stroke="#C9C9C9" stroke-miterlimit="10" width="600" height="174.7"/>
	
		<use xlink:href="#Footer_Menu"  width="641" height="91" id="XMLID_2_" x="-320.5" y="-40.5" transform="matrix(1 0 0 -1 2006.3142 785.804)" overflow="visible"/>
	<g>
		<polygon fill="#58595B" points="1794.5,419.8 1791.5,430.6 1802.3,427.5 		"/>
		
			<rect x="1817.6" y="393.7" transform="matrix(-0.7071 -0.7071 0.7071 -0.7071 2832.4045 1969.2443)" fill="#58595B" width="12.9" height="8.7"/>
		<g>
			<path fill="#58595B" d="M1807.1,404.8l-0.8-10.8c-0.1-0.7-0.5-1.3-1.1-1.5l-13.7-4.7c-2.2-0.7-4.4-1.6-6.6-2.4
				c-0.8-0.3-1.5-0.6-2.3-0.9v-8.1c1.8-1.3,5.6-5,5.9-12.9c0.7-0.4,1.3-1,1.7-1.9c0.5-1,0.8-2.4,0.8-3.8c0-2.5-0.8-4.4-2.1-5.4
				c1-2.5,2.9-7.2,1.7-12c-1.4-5.5-9.2-7.4-15.5-7.4c-5.7,0-12.7,1.6-15,5.9c-3-0.2-4.6,1-5.4,2c-2.3,3.1-0.7,8.6,0.1,11.6
				c0,0,0,0,0,0.1c-0.5,0.4-1,0.9-1.4,1.6c-0.5,1-0.8,2.3-0.8,3.7c0,2.7,1,4.7,2.5,5.6c0.4,8.2,5.1,12.9,7,14.4v6.5
				c-2.8,1-5.7,2-8.6,2.9c-9.7,3.2-18.1,6-19.7,10.7c-2.1,6.3-2.2,17.6-2.2,18.1c0,0.5,0.2,0.9,0.5,1.2c0.3,0.3,0.8,0.5,1.2,0.5
				h60.6L1807.1,404.8z"/>
			
				<rect x="1803.2" y="399.8" transform="matrix(0.7071 0.7071 -0.7071 0.7071 821.6525 -1158.8956)" fill="#58595B" width="12.9" height="25.2"/>
		</g>
		<line fill="#58595B" x1="1813.8" y1="396.3" x2="1813.8" y2="396.3"/>
		<line fill="#58595B" x1="1826.1" y1="408.6" x2="1826.1" y2="408.6"/>
	</g>
	<text transform="matrix(1 0 0 1 1894.1924 394.8328)" font-family="'MyriadPro-Regular'" font-size="44.25">edit my profile</text>
	<rect x="1707.9" y="287.5" fill="none" stroke="#C9C9C9" stroke-miterlimit="10" width="600" height="174.7"/>
	<path fill="#58595B" d="M1831.2,234.5l-31-31c6.5-7,10.4-16.4,10.4-26.7c0-21.8-17.7-39.5-39.5-39.5c-21.8,0-39.5,17.7-39.5,39.5
		s17.7,39.5,39.5,39.5c10.3,0,19.7-4,26.7-10.4l31,31c0.3,0.3,0.8,0.5,1.2,0.5s0.9-0.2,1.2-0.5
		C1831.9,236.2,1831.9,235.1,1831.2,234.5z M1789.4,201.8c-0.9-0.4-1.7-0.8-2.6-1.3c-2.5-1.2-4.9-2.4-7.4-3.4c-0.6-0.3-1-0.9-1-1.5
		v-8.3c0-0.7,0.4-1.3,1.1-1.6c0,0,2.7-1.5,2.7-9c0-0.9,0.7-1.7,1.7-1.7c0.4-0.2,1.3-2.2,1-4c-0.2-1.1-0.6-1.1-0.8-1.1
		c-0.9,0-1.7-0.7-1.7-1.7c0-0.6,0.2-1.1,0.6-2c0.8-1.8,2.2-4.9,1.4-8.1c-0.9-3.5-6.3-5-11-5h0c-4.7,0-10.1,1.6-11,5
		c-0.2,0.9-1.1,1.4-2,1.2c-1.6-0.3-2.2-0.1-2.4,0.1c-0.5,0.6,0,2.8,1.5,6.4c0.5,1.3,0.8,1.8,0.8,2.4c0,0.9-0.7,1.7-1.7,1.7
		c-0.2,0-0.7,0-1,1.2c-0.3,1.8,0.5,3.7,1,3.9c0.9,0,1.6,0.7,1.6,1.7c0,7.5,3.5,8.9,3.6,8.9c0.7,0.2,1.1,0.9,1.1,1.6v8.3
		c0,0.7-0.4,1.3-1,1.5l-0.8,0.3c-3.3,1.3-7.1,2.8-10.2,4.3l-1.4-3c3.1-1.5,6.8-3,10.1-4.3v-6.2c-1.6-1-4.4-3.8-4.8-10.3
		c-1.7-1-2.7-3.5-2.7-6c0-1.3,0.3-2.5,0.9-3.4c0.4-0.5,0.8-1,1.3-1.3c0,0,0,0,0,0c-1.2-2.9-3.1-7.3-1-9.8c0.9-1.1,2.3-1.6,4.2-1.4
		c2.2-4.5,8.5-6.1,13.7-6.1h0c5.7,0,12.8,2,14.2,7.6c1,4-0.5,7.7-1.4,9.9c0.5,0.3,0.9,0.7,1.2,1.2c0.6,0.9,0.9,2.1,0.9,3.4
		c0,2.5-1,5-2.7,6c-0.2,6.4-2.4,9.1-3.7,10.2v6.3c2.2,0.9,4.4,2,6.5,3c0.9,0.4,1.7,0.8,2.6,1.2L1789.4,201.8z"/>
	<text transform="matrix(1 0 0 1 1894.1924 584.8328)" font-family="'MyriadPro-Regular'" font-size="44.25">change my settings</text>
	<rect x="1707.9" y="484.5" fill="none" stroke="#C9C9C9" stroke-miterlimit="10" width="600" height="174.7"/>
	<path fill="#58595B" d="M1830,561.8h-12.4c-0.8-2.9-2-5.8-3.4-8.3l8.7-8.7c0.3-0.3,0.5-0.7,0.5-1.2c0-0.4-0.2-0.9-0.5-1.2
		l-11.9-11.9c-0.7-0.7-1.7-0.7-2.4,0l-8.8,8.7c-2.6-1.4-6.1-2.8-8.3-3.4v-12.4c0-0.9-0.7-1.7-1.7-1.7h-16.7c-0.9,0-1.7,0.7-1.7,1.7
		v12.4c-2.3,0.7-5.6,2-8.3,3.4l-8.8-8.7c-0.7-0.7-1.7-0.7-2.4,0l-11.9,11.9c-0.7,0.7-0.7,1.7,0,2.4l8.8,8.8c-1.4,2.6-2.7,6-3.4,8.3
		h-12.4c-0.9,0-1.7,0.7-1.7,1.7v13.3c0,0.9,0.7,1.7,1.7,1.7h12.2c0.7,4.3,2.1,8.6,3.6,11.6l-8.8,8.8c-0.3,0.3-0.5,0.7-0.5,1.2
		c0,0.4,0.2,0.9,0.5,1.2l11.9,11.9c0.6,0.6,1.7,0.6,2.4,0l8.8-8.8c1.9,1,4.2,1.8,6.2,2.5c0.8,0.3,1.5,0.5,2.1,0.8v12.6
		c0,0.9,0.7,1.7,1.7,1.7h16.7c0.9,0,1.7-0.7,1.7-1.7v-12.6c0.6-0.2,1.3-0.5,2.1-0.8c1.9-0.7,4.3-1.5,6.2-2.5l8.8,8.8
		c0.7,0.7,1.7,0.7,2.4,0l11.9-11.9c0.7-0.7,0.7-1.7,0-2.4l-8.7-8.7c1.5-2.6,2.8-5.1,3.6-11.7h12.2c0.9,0,1.7-0.7,1.7-1.7v-13.3
		C1831.7,562.6,1830.9,561.8,1830,561.8z M1781.7,588.5c-9.2,0-16.7-7.5-16.7-16.7c0-9.2,7.5-16.7,16.7-16.7
		c9.2,0,16.7,7.5,16.7,16.7C1798.4,581,1790.9,588.5,1781.7,588.5z"/>
	<path fill="#FFFFFF" d="M1772.8-239.9l-18.6-18.6c3.9-4.2,6.3-9.8,6.3-16c0-13.1-10.6-23.7-23.7-23.7c-13.1,0-23.7,10.6-23.7,23.7
		s10.6,23.7,23.7,23.7c6.2,0,11.8-2.4,16-6.3l18.6,18.6c0.2,0.2,0.5,0.3,0.7,0.3c0.3,0,0.5-0.1,0.7-0.3
		C1773.2-238.9,1773.2-239.5,1772.8-239.9z M1747.7-259.5c-0.5-0.2-1-0.5-1.6-0.8c-1.5-0.7-2.9-1.4-4.4-2c-0.4-0.2-0.6-0.5-0.6-0.9
		v-5c0-0.4,0.3-0.8,0.6-0.9c0,0,1.6-0.9,1.6-5.4c0-0.6,0.4-1,1-1c0.2-0.1,0.8-1.3,0.6-2.4c-0.1-0.7-0.4-0.7-0.5-0.7
		c-0.6,0-1-0.4-1-1c0-0.3,0.1-0.7,0.4-1.2c0.5-1.1,1.3-2.9,0.8-4.9c-0.5-2.1-3.8-3-6.6-3h0c-2.8,0-6.1,0.9-6.6,3
		c-0.1,0.5-0.6,0.8-1.2,0.7c-0.9-0.2-1.3-0.1-1.4,0c-0.3,0.4,0,1.7,0.9,3.8c0.3,0.8,0.5,1.1,0.5,1.4c0,0.6-0.4,1-1,1
		c-0.1,0-0.4,0-0.6,0.7c-0.2,1.1,0.3,2.2,0.6,2.4c0.6,0,1,0.4,1,1c0,4.5,2.1,5.3,2.2,5.4c0.4,0.1,0.7,0.5,0.7,0.9v5
		c0,0.4-0.2,0.8-0.6,0.9l-0.5,0.2c-2,0.8-4.3,1.7-6.1,2.6l-0.9-1.8c1.9-0.9,4.1-1.8,6.1-2.6v-3.7c-1-0.6-2.7-2.3-2.9-6.2
		c-1-0.6-1.6-2.1-1.6-3.6c0-0.8,0.2-1.5,0.5-2.1c0.2-0.3,0.5-0.6,0.8-0.8c0,0,0,0,0,0c-0.7-1.7-1.9-4.4-0.6-5.9
		c0.5-0.7,1.4-0.9,2.5-0.9c1.3-2.7,5.1-3.7,8.2-3.7h0c3.4,0,7.7,1.2,8.5,4.5c0.6,2.4-0.3,4.6-0.8,5.9c0.3,0.2,0.5,0.4,0.7,0.7
		c0.3,0.5,0.5,1.2,0.5,2c0,1.5-0.6,3-1.6,3.6c-0.1,3.8-1.4,5.5-2.2,6.1v3.8c1.3,0.6,2.7,1.2,3.9,1.8c0.5,0.2,1,0.5,1.5,0.7
		L1747.7-259.5z"/>
	<g>
		<polygon fill="#FFFFFF" points="1924.3,-244.8 1922.4,-238.2 1929.1,-240.1 		"/>
		
			<rect x="1938.5" y="-260.9" transform="matrix(-0.7071 -0.7071 0.7071 -0.7071 3498.6318 932.7122)" fill="#FFFFFF" width="8" height="5.3"/>
		<g>
			<path fill="#FFFFFF" d="M1932.1-254.1l-0.5-6.6c0-0.4-0.3-0.8-0.7-0.9l-8.4-2.9c-1.4-0.4-2.7-1-4.1-1.5c-0.5-0.2-0.9-0.4-1.4-0.6
				v-5c1.1-0.8,3.4-3.1,3.7-7.9c0.4-0.2,0.8-0.6,1.1-1.2c0.3-0.6,0.5-1.5,0.5-2.3c0-1.5-0.5-2.7-1.3-3.3c0.6-1.6,1.8-4.4,1-7.4
				c-0.8-3.4-5.7-4.5-9.6-4.5c-3.5,0-7.8,1-9.2,3.7c-1.8-0.2-2.8,0.6-3.3,1.2c-1.4,1.9-0.4,5.3,0.1,7.1c0,0,0,0,0,0
				c-0.3,0.2-0.6,0.6-0.8,1c-0.3,0.6-0.5,1.4-0.5,2.3c0,1.6,0.6,2.9,1.6,3.4c0.3,5.1,3.1,7.9,4.3,8.9v4c-1.7,0.6-3.5,1.2-5.3,1.8
				c-6,2-11.2,3.7-12.1,6.6c-1.3,3.9-1.4,10.8-1.4,11.1c0,0.3,0.1,0.5,0.3,0.7c0.2,0.2,0.5,0.3,0.7,0.3h37.3L1932.1-254.1z"/>
			
				<rect x="1929.7" y="-257.2" transform="matrix(0.7071 0.7071 -0.7071 0.7071 390.0059 -1440.3856)" fill="#FFFFFF" width="8" height="15.5"/>
		</g>
		<line fill="#FFFFFF" x1="1936.2" y1="-259.3" x2="1936.2" y2="-259.3"/>
		<line fill="#FFFFFF" x1="1943.8" y1="-251.7" x2="1943.8" y2="-251.7"/>
	</g>
	<path fill="#FFFFFF" d="M2129.6-274.2h-7.4c-0.5-1.7-1.2-3.5-2-5l5.2-5.2c0.2-0.2,0.3-0.4,0.3-0.7c0-0.3-0.1-0.5-0.3-0.7l-7.1-7.1
		c-0.4-0.4-1-0.4-1.4,0l-5.3,5.2c-1.6-0.9-3.7-1.7-5-2.1v-7.4c0-0.6-0.4-1-1-1h-10c-0.6,0-1,0.4-1,1v7.4c-1.4,0.4-3.4,1.2-5,2.1
		l-5.3-5.2c-0.4-0.4-1-0.4-1.4,0l-7.1,7.1c-0.4,0.4-0.4,1,0,1.4l5.3,5.3c-0.8,1.6-1.6,3.6-2,5h-7.4c-0.6,0-1,0.4-1,1v8
		c0,0.6,0.4,1,1,1h7.3c0.4,2.6,1.2,5.2,2.2,7l-5.3,5.3c-0.2,0.2-0.3,0.4-0.3,0.7c0,0.3,0.1,0.5,0.3,0.7l7.1,7.1c0.4,0.4,1,0.4,1.4,0
		l5.3-5.3c1.1,0.6,2.5,1.1,3.7,1.5c0.5,0.2,0.9,0.3,1.3,0.5v7.5c0,0.6,0.4,1,1,1h10c0.6,0,1-0.4,1-1v-7.5c0.4-0.1,0.8-0.3,1.3-0.5
		c1.2-0.4,2.6-0.9,3.7-1.5l5.3,5.3c0.4,0.4,1,0.4,1.4,0l7.1-7.1c0.4-0.4,0.4-1,0-1.4l-5.2-5.2c0.9-1.5,1.7-3.1,2.2-7h7.3
		c0.6,0,1-0.4,1-1v-8C2130.6-273.7,2130.2-274.2,2129.6-274.2z M2100.6-258.2c-5.5,0-10-4.5-10-10s4.5-10,10-10s10,4.5,10,10
		S2106.2-258.2,2100.6-258.2z"/>
	
		<use xlink:href="#Footer_Menu"  width="641" height="91" id="XMLID_1_" x="-320.5" y="-40.5" transform="matrix(1 0 0 -1 2701.3142 785.304)" overflow="visible"/>
	<linearGradient id="SVGID_3_" gradientUnits="userSpaceOnUse" x1="2701.3142" y1="-232.1226" x2="2701.3142" y2="-312.1226">
		<stop  offset="0" style="stop-color:#2B2B2B"/>
		<stop  offset="1" style="stop-color:#0F0F0F"/>
	</linearGradient>
	<rect x="2381.3" y="-312.1" fill="url(#SVGID_3_)" stroke="#000000" stroke-miterlimit="10" width="640" height="80"/>
	<g>
		<g>
			<path fill="#C9C9C9" d="M2748-40.8c7.7,0,14-6.3,14-14s-6.3-14-14-14c-7.7,0-14,6.3-14,14S2740.3-40.8,2748-40.8z"/>
			<path fill="#C9C9C9" d="M2725.5-36.2v2.3c0,14.3,1.1,29.8,13.2,33.9v24.4h18.7V0.1c12.9-4,14-19.6,14-34v-2.3H2725.5z"/>
			<path fill="#C9C9C9" d="M2701.3-87.5c7.7,0,14-6.3,14-14s-6.3-14-14-14c-7.7,0-14,6.3-14,14S2693.6-87.5,2701.3-87.5z"/>
			<path fill="#C9C9C9" d="M2678.8-80.5c0,14.6,1.1,30.3,13.2,34.4v23.9h18.7V-46c12.9-4.1,14-19.8,14-34.5v-2.3h-45.9V-80.5z"/>
			<path fill="#C9C9C9" d="M2654.6-40.8c7.7,0,14-6.3,14-14s-6.3-14-14-14c-7.7,0-14,6.3-14,14S2646.9-40.8,2654.6-40.8z"/>
			<path fill="#C9C9C9" d="M2631.3-33.8c0,13.9,1.6,30.2,14,34.4v23.9h18.7V0.6c13.2-4.2,13.2-20.9,13.2-34.5v-2.3h-45.9V-33.8z"/>
		</g>
		<circle fill="none" stroke="#C9C9C9" stroke-width="8" stroke-miterlimit="10" cx="2701.3" cy="-37.5" r="100"/>
	</g>
	<text transform="matrix(1 0 0 1 2635.595 -166.2898)" fill="#767677" font-family="'MyriadPro-Regular'" font-size="45.75">friends</text>
	<path fill="#FFFFFF" d="M1182.6-310.2c-16.5,0-30,13.5-30,30c0,7.7,2.9,15.1,8.2,20.7c0,0,0,0,0,0l0,0c0,0,0,0,0,0c0,0,0,0,0,0
		c0,0,0,0,0,0c0,0,0,0,0,0c0,0,0,0,0,0c0,0,0,0,0,0c0,0,0,0,0,0c0,0,0,0,0,0l0,0c0,0,0,0,0,0c0,0,0,0,0,0v0c0,0,0,0,0,0c0,0,0,0,0,0
		c0,0,0,0,0,0c5.8,5.8,13.9,9.3,21.7,9.3c7.9,0,16-3.5,21.7-9.3c0,0,0,0,0,0c5.3-5.6,8.3-12.9,8.3-20.7
		C1212.6-296.7,1199.2-310.2,1182.6-310.2z M1203.5-261.5c-1.4-0.7-4.3-1.8-9.2-3.5c-1.9-0.7-3.8-1.3-5.6-2v-5
		c1.2-0.7,3.5-2.6,3.8-7.4c0.4-0.2,0.8-0.6,1.1-1.1c0.3-0.6,0.5-1.4,0.5-2.2c0-1.5-0.5-2.6-1.4-3.2c0,0,0-0.1,0-0.1
		c0.6-1.9,1.7-5.4,1-8.3c-0.8-3.4-5.5-4.5-9.2-4.5c-3.4,0-7.5,1-8.8,3.7c-1.8-0.1-2.7,0.6-3.2,1.2c-1.5,2-0.5,5.9,0.1,7.9
		c0,0,0,0.1,0,0.1c-0.8,0.5-1.4,1.7-1.4,3.2c0,1.6,0.6,2.8,1.6,3.3c0.2,4.8,2.6,6.7,3.8,7.4v5c-1.6,0.6-3.4,1.2-5.1,1.7
		c-3.7,1.2-7.3,2.4-9.7,3.8c-4.6-5.1-7.2-11.8-7.2-18.7c0-15.4,12.6-28,28-28c15.4,0,28,12.6,28,28
		C1210.6-273.2,1208.1-266.6,1203.5-261.5z"/>
	<path fill="#C9C9C9" d="M1259.2-308.8c-16.5,0-30,13.5-30,30c0,7.7,2.9,15.1,8.2,20.7c0,0,0,0,0,0l0,0c0,0,0,0,0,0c0,0,0,0,0,0
		c0,0,0,0,0,0c0,0,0,0,0,0c0,0,0,0,0,0c0,0,0,0,0,0c0,0,0,0,0,0c0,0,0,0,0,0l0,0c0,0,0,0,0,0c0,0,0,0,0,0v0c0,0,0,0,0,0c0,0,0,0,0,0
		c0,0,0,0,0,0c5.8,5.8,13.9,9.3,21.7,9.3c7.9,0,16-3.5,21.7-9.3c0,0,0,0,0,0c5.3-5.6,8.3-12.9,8.3-20.7
		C1289.2-295.3,1275.7-308.8,1259.2-308.8z M1280-260.1c-1.4-0.7-4.3-1.8-9.2-3.5c-1.9-0.7-3.8-1.3-5.6-2v-5
		c1.2-0.7,3.5-2.6,3.8-7.4c0.4-0.2,0.8-0.6,1.1-1.1c0.3-0.6,0.5-1.4,0.5-2.2c0-1.5-0.5-2.6-1.4-3.2c0,0,0-0.1,0-0.1
		c0.6-1.9,1.7-5.4,1-8.3c-0.8-3.4-5.5-4.5-9.2-4.5c-3.4,0-7.5,1-8.8,3.7c-1.8-0.1-2.7,0.6-3.2,1.2c-1.5,2-0.5,5.9,0.1,7.9
		c0,0,0,0.1,0,0.1c-0.8,0.5-1.4,1.7-1.4,3.2c0,1.6,0.6,2.8,1.6,3.3c0.2,4.8,2.6,6.7,3.8,7.4v5c-1.6,0.6-3.4,1.2-5.1,1.7
		c-3.7,1.2-7.3,2.4-9.7,3.8c-4.6-5.1-7.2-11.8-7.2-18.7c0-15.4,12.6-28,28-28c15.4,0,28,12.6,28,28
		C1287.2-271.8,1284.6-265.2,1280-260.1z"/>
	<g>
		<g>
			<path fill="#FFFFFF" d="M1048.6-280.2c2.3,0,4.2-1.9,4.2-4.2c0-2.3-1.9-4.2-4.2-4.2c-2.3,0-4.2,1.9-4.2,4.2
				C1044.4-282.1,1046.3-280.2,1048.6-280.2z"/>
			<path fill="#FFFFFF" d="M1041.8-278.8v0.7c0,4.3,0.3,8.9,4,10.2v7.3h5.6v-7.3c3.9-1.2,4.2-5.9,4.2-10.2v-0.7H1041.8z"/>
			<path fill="#FFFFFF" d="M1034.6-294.2c2.3,0,4.2-1.9,4.2-4.2c0-2.3-1.9-4.2-4.2-4.2c-2.3,0-4.2,1.9-4.2,4.2
				C1030.4-296.1,1032.3-294.2,1034.6-294.2z"/>
			<path fill="#FFFFFF" d="M1027.8-292.1c0,4.4,0.3,9.1,4,10.3v7.2h5.6v-7.2c3.9-1.2,4.2-6,4.2-10.3v-0.7h-13.8V-292.1z"/>
			<path fill="#FFFFFF" d="M1020.6-280.2c2.3,0,4.2-1.9,4.2-4.2c0-2.3-1.9-4.2-4.2-4.2c-2.3,0-4.2,1.9-4.2,4.2
				C1016.4-282.1,1018.3-280.2,1020.6-280.2z"/>
			<path fill="#FFFFFF" d="M1013.6-278.1c0,4.2,0.5,9.1,4.2,10.3v7.2h5.6v-7.2c4-1.3,4-6.3,4-10.3v-0.7h-13.8V-278.1z"/>
		</g>
		<path fill="#FFFFFF" d="M1034.6-248.2c-17.1,0-31-13.9-31-31s13.9-31,31-31s31,13.9,31,31S1051.7-248.2,1034.6-248.2z
			 M1034.6-308.2c-16,0-29,13-29,29s13,29,29,29s29-13,29-29S1050.6-308.2,1034.6-308.2z"/>
	</g>
	<g>
		<path fill="#FFFFFF" d="M1108.6-300.2c-8.1,0-14.7,6.6-14.7,14.7c0,7.9,13.6,26.2,14.1,27c0.1,0.2,0.3,0.3,0.6,0.3
			c0.2,0,0.4-0.1,0.6-0.3c0.6-0.8,14.1-19.1,14.1-27C1123.3-293.6,1116.7-300.2,1108.6-300.2z M1108.6-279.2c-3.5,0-6.3-2.8-6.3-6.3
			s2.8-6.3,6.3-6.3c3.5,0,6.3,2.8,6.3,6.3S1112.1-279.2,1108.6-279.2z"/>
		<path fill="#FFFFFF" d="M1108.6-248.2c-17.1,0-31-13.9-31-31s13.9-31,31-31s31,13.9,31,31S1125.7-248.2,1108.6-248.2z
			 M1108.6-308.2c-16,0-29,13-29,29s13,29,29,29s29-13,29-29S1124.6-308.2,1108.6-308.2z"/>
	</g>
	<g>
		<g>
			<path fill="#FFFFFF" d="M980.9-295.3H955c-0.4,0-0.7,0.3-0.7,0.7v20.3c3.5,0,6.3,2.8,6.3,6.3h7c0-3.5,2.8-6.3,6.3-6.3
				c3.5,0,6.3,2.8,6.3,6.3h0.7c0.4,0,0.7-0.3,0.7-0.7v-25.9C981.6-295,981.2-295.3,980.9-295.3z"/>
			<path fill="#FFFFFF" d="M952.9-274.1v-13.5c0-0.4-0.3-0.7-0.7-0.7h-6.3c-3.5,0-6.3,2.8-6.3,6.3v10.5h9.1c0.1,0,0.2,0,0.3,0.1
				C949.8-272.8,951.2-273.8,952.9-274.1z M946.6-282.7c-0.8,0-1.4,0.6-1.4,1.4v3.5c0,0.4-0.3,0.7-0.7,0.7s-0.7-0.3-0.7-0.7v-3.5
				c0-1.5,1.3-2.8,2.8-2.8h3.5c0.4,0,0.7,0.3,0.7,0.7c0,0.4-0.3,0.7-0.7,0.7H946.6z"/>
			<path fill="#FFFFFF" d="M939.6-270.1v3.5c0,0.4,0.3,0.7,0.7,0.7h8.1c-0.2-0.7-0.4-1.4-0.4-2.1s0.1-1.4,0.4-2.1H939.6z"/>
			<path fill="#FFFFFF" d="M973.9-272.9c-2.7,0-4.9,2.2-4.9,4.9s2.2,4.9,4.9,4.9c2.7,0,4.9-2.2,4.9-4.9S976.6-272.9,973.9-272.9z"/>
			<path fill="#FFFFFF" d="M954.3-272.9c-2.7,0-4.9,2.2-4.9,4.9s2.2,4.9,4.9,4.9c2.7,0,4.9-2.2,4.9-4.9S957-272.9,954.3-272.9z"/>
		</g>
		<path fill="#FFFFFF" d="M960.6-248.2c-17.1,0-31-13.9-31-31s13.9-31,31-31s31,13.9,31,31S977.6-248.2,960.6-248.2z M960.6-308.2
			c-16,0-29,13-29,29s13,29,29,29s29-13,29-29S976.5-308.2,960.6-308.2z"/>
		<text transform="matrix(1 0 0 1 956.0751 -280.655)" fill="#303030" font-family="'MyriadPro-Regular'" font-size="9.7783">home</text>
	</g>
	<path fill="#58595B" d="M989.3-171.8l-18.6-18.6c3.9-4.2,6.3-9.8,6.3-16c0-13.1-10.6-23.7-23.7-23.7c-13.1,0-23.7,10.6-23.7,23.7
		c0,13.1,10.6,23.7,23.7,23.7c6.2,0,11.8-2.4,16-6.3l18.6,18.6c0.2,0.2,0.5,0.3,0.7,0.3s0.5-0.1,0.7-0.3
		C989.7-170.8,989.7-171.4,989.3-171.8z M964.2-191.4c-0.5-0.2-1-0.5-1.6-0.8c-1.5-0.7-2.9-1.4-4.4-2c-0.4-0.2-0.6-0.5-0.6-0.9v-5
		c0-0.4,0.3-0.8,0.6-0.9c0,0,1.6-0.9,1.6-5.4c0-0.6,0.4-1,1-1c0.2-0.1,0.8-1.3,0.6-2.4c-0.1-0.7-0.4-0.7-0.5-0.7c-0.6,0-1-0.4-1-1
		c0-0.3,0.1-0.7,0.4-1.2c0.5-1.1,1.3-2.9,0.8-4.9c-0.5-2.1-3.8-3-6.6-3h0c-2.8,0-6.1,0.9-6.6,3c-0.1,0.5-0.6,0.8-1.2,0.7
		c-0.9-0.2-1.3-0.1-1.4,0c-0.3,0.4,0,1.7,0.9,3.8c0.3,0.8,0.5,1.1,0.5,1.4c0,0.6-0.4,1-1,1c-0.1,0-0.4,0-0.6,0.7
		c-0.2,1.1,0.3,2.2,0.6,2.4c0.6,0,1,0.4,1,1c0,4.5,2.1,5.3,2.2,5.4c0.4,0.1,0.7,0.5,0.7,0.9v5c0,0.4-0.2,0.8-0.6,0.9l-0.5,0.2
		c-2,0.8-4.3,1.7-6.1,2.6l-0.9-1.8c1.9-0.9,4.1-1.8,6.1-2.6v-3.7c-1-0.6-2.7-2.3-2.9-6.2c-1-0.6-1.6-2.1-1.6-3.6
		c0-0.8,0.2-1.5,0.5-2.1c0.2-0.3,0.5-0.6,0.8-0.8c0,0,0,0,0,0c-0.7-1.7-1.9-4.4-0.6-5.9c0.5-0.7,1.4-0.9,2.5-0.9
		c1.3-2.7,5.1-3.7,8.2-3.7h0c3.4,0,7.7,1.2,8.5,4.5c0.6,2.4-0.3,4.6-0.8,5.9c0.3,0.2,0.5,0.4,0.7,0.7c0.3,0.5,0.5,1.2,0.5,2
		c0,1.5-0.6,3-1.6,3.6c-0.1,3.8-1.4,5.5-2.2,6.1v3.8c1.3,0.6,2.7,1.2,3.9,1.8c0.5,0.2,1,0.5,1.5,0.7L964.2-191.4z"/>
	<g>
		<polygon fill="#58595B" points="1041.3,-178.1 1039.4,-171.6 1045.9,-173.5 		"/>
		
			<rect x="1055.1" y="-193.8" transform="matrix(-0.7071 -0.7071 0.7071 -0.7071 1943.0035 422.4604)" fill="#58595B" width="7.8" height="5.2"/>
		<g>
			<path fill="#58595B" d="M1048.8-187.1l-0.5-6.5c0-0.4-0.3-0.8-0.7-0.9l-8.2-2.8c-1.3-0.4-2.6-0.9-4-1.5c-0.5-0.2-0.9-0.4-1.4-0.5
				v-4.9c1.1-0.8,3.3-3,3.6-7.7c0.4-0.2,0.8-0.6,1-1.1c0.3-0.6,0.5-1.4,0.5-2.3c0-1.5-0.5-2.6-1.3-3.2c0.6-1.5,1.7-4.3,1-7.2
				c-0.8-3.3-5.5-4.4-9.3-4.4c-3.4,0-7.6,1-9,3.6c-1.8-0.1-2.8,0.6-3.2,1.2c-1.4,1.8-0.4,5.2,0.1,6.9c0,0,0,0,0,0
				c-0.3,0.2-0.6,0.6-0.8,1c-0.3,0.6-0.5,1.4-0.5,2.2c0,1.6,0.6,2.8,1.5,3.3c0.3,4.9,3.1,7.7,4.2,8.7v3.9c-1.7,0.6-3.4,1.2-5.1,1.8
				c-5.8,1.9-10.9,3.6-11.8,6.4c-1.3,3.8-1.3,10.6-1.3,10.8c0,0.3,0.1,0.5,0.3,0.7c0.2,0.2,0.5,0.3,0.7,0.3h36.4L1048.8-187.1z"/>
			
				<rect x="1046.5" y="-190.1" transform="matrix(0.7071 0.7071 -0.7071 0.7071 178.5586 -796.2249)" fill="#58595B" width="7.8" height="15.1"/>
		</g>
		<line fill="#58595B" x1="1052.9" y1="-192.2" x2="1052.9" y2="-192.2"/>
		<line fill="#58595B" x1="1060.2" y1="-184.8" x2="1060.2" y2="-184.8"/>
	</g>
	<path fill="#58595B" d="M1136.6-206.9h-7.4c-0.5-1.7-1.2-3.5-2-5l5.2-5.2c0.2-0.2,0.3-0.4,0.3-0.7c0-0.3-0.1-0.5-0.3-0.7l-7.1-7.1
		c-0.4-0.4-1-0.4-1.4,0l-5.3,5.2c-1.6-0.9-3.7-1.7-5-2.1v-7.4c0-0.6-0.4-1-1-1h-10c-0.6,0-1,0.4-1,1v7.4c-1.4,0.4-3.4,1.2-5,2.1
		l-5.3-5.2c-0.4-0.4-1-0.4-1.4,0l-7.1,7.1c-0.4,0.4-0.4,1,0,1.4l5.3,5.3c-0.8,1.6-1.6,3.6-2,5h-7.4c-0.6,0-1,0.4-1,1v8
		c0,0.6,0.4,1,1,1h7.3c0.4,2.6,1.2,5.2,2.2,7l-5.3,5.3c-0.2,0.2-0.3,0.4-0.3,0.7c0,0.3,0.1,0.5,0.3,0.7l7.1,7.1c0.4,0.4,1,0.4,1.4,0
		l5.3-5.3c1.1,0.6,2.5,1.1,3.7,1.5c0.5,0.2,0.9,0.3,1.3,0.5v7.5c0,0.6,0.4,1,1,1h10c0.6,0,1-0.4,1-1v-7.5c0.4-0.1,0.8-0.3,1.3-0.5
		c1.2-0.4,2.6-0.9,3.7-1.5l5.3,5.3c0.4,0.4,1,0.4,1.4,0l7.1-7.1c0.4-0.4,0.4-1,0-1.4l-5.2-5.2c0.9-1.5,1.7-3.1,2.2-7h7.3
		c0.6,0,1-0.4,1-1v-8C1137.6-206.4,1137.2-206.9,1136.6-206.9z M1107.6-190.9c-5.5,0-10-4.5-10-10c0-5.5,4.5-10,10-10
		c5.5,0,10,4.5,10,10C1117.6-195.4,1113.1-190.9,1107.6-190.9z"/>
	<path fill="#FFFFFF" d="M1212.3-172.6l-18.6-18.6c3.9-4.2,6.3-9.8,6.3-16c0-13.1-10.6-23.7-23.7-23.7c-13.1,0-23.7,10.6-23.7,23.7
		c0,13.1,10.6,23.7,23.7,23.7c6.2,0,11.8-2.4,16-6.3l18.6,18.6c0.2,0.2,0.5,0.3,0.7,0.3c0.3,0,0.5-0.1,0.7-0.3
		C1212.7-171.6,1212.7-172.2,1212.3-172.6z M1187.2-192.2c-0.5-0.2-1-0.5-1.6-0.8c-1.5-0.7-2.9-1.4-4.4-2c-0.4-0.2-0.6-0.5-0.6-0.9
		v-5c0-0.4,0.3-0.8,0.6-0.9c0,0,1.6-0.9,1.6-5.4c0-0.6,0.4-1,1-1c0.2-0.1,0.8-1.3,0.6-2.4c-0.1-0.7-0.4-0.7-0.5-0.7
		c-0.6,0-1-0.4-1-1c0-0.3,0.1-0.7,0.4-1.2c0.5-1.1,1.3-2.9,0.8-4.9c-0.5-2.1-3.8-3-6.6-3h0c-2.8,0-6.1,0.9-6.6,3
		c-0.1,0.5-0.6,0.8-1.2,0.7c-0.9-0.2-1.3-0.1-1.4,0c-0.3,0.4,0,1.7,0.9,3.8c0.3,0.8,0.5,1.1,0.5,1.4c0,0.6-0.4,1-1,1
		c-0.1,0-0.4,0-0.6,0.7c-0.2,1.1,0.3,2.2,0.6,2.4c0.6,0,1,0.4,1,1c0,4.5,2.1,5.3,2.2,5.4c0.4,0.1,0.7,0.5,0.7,0.9v5
		c0,0.4-0.2,0.8-0.6,0.9l-0.5,0.2c-2,0.8-4.3,1.7-6.1,2.6l-0.9-1.8c1.9-0.9,4.1-1.8,6.1-2.6v-3.7c-1-0.6-2.7-2.3-2.9-6.2
		c-1-0.6-1.6-2.1-1.6-3.6c0-0.8,0.2-1.5,0.5-2.1c0.2-0.3,0.5-0.6,0.8-0.8c0,0,0,0,0,0c-0.7-1.7-1.9-4.4-0.6-5.9
		c0.5-0.7,1.4-0.9,2.5-0.9c1.3-2.7,5.1-3.7,8.2-3.7h0c3.4,0,7.7,1.2,8.5,4.5c0.6,2.4-0.3,4.6-0.8,5.9c0.3,0.2,0.5,0.4,0.7,0.7
		c0.3,0.5,0.5,1.2,0.5,2c0,1.5-0.6,3-1.6,3.6c-0.1,3.8-1.4,5.5-2.2,6.1v3.8c1.3,0.6,2.7,1.2,3.9,1.8c0.5,0.2,1,0.5,1.5,0.7
		L1187.2-192.2z"/>
	<g>
		<polygon fill="#FFFFFF" points="1267.9,-181.4 1266,-174.7 1272.6,-176.6 		"/>
		
			<rect x="1282.1" y="-197.4" transform="matrix(-0.7071 -0.7071 0.7071 -0.7071 2333.0991 576.8873)" fill="#FFFFFF" width="8" height="5.3"/>
		<g>
			<path fill="#FFFFFF" d="M1275.6-190.6l-0.5-6.6c0-0.4-0.3-0.8-0.7-0.9l-8.4-2.9c-1.4-0.4-2.7-1-4.1-1.5c-0.5-0.2-0.9-0.4-1.4-0.6
				v-5c1.1-0.8,3.4-3.1,3.7-7.9c0.4-0.2,0.8-0.6,1.1-1.2c0.3-0.6,0.5-1.5,0.5-2.3c0-1.5-0.5-2.7-1.3-3.3c0.6-1.6,1.8-4.4,1-7.4
				c-0.8-3.4-5.7-4.5-9.6-4.5c-3.5,0-7.8,1-9.2,3.7c-1.8-0.2-2.8,0.6-3.3,1.2c-1.4,1.9-0.4,5.3,0.1,7.1c0,0,0,0,0,0
				c-0.3,0.2-0.6,0.6-0.8,1c-0.3,0.6-0.5,1.4-0.5,2.3c0,1.6,0.6,2.9,1.6,3.4c0.3,5.1,3.1,7.9,4.3,8.9v4c-1.7,0.6-3.5,1.2-5.3,1.8
				c-6,2-11.2,3.7-12.1,6.6c-1.3,3.9-1.4,10.8-1.4,11.1c0,0.3,0.1,0.5,0.3,0.7c0.2,0.2,0.5,0.3,0.7,0.3h37.3L1275.6-190.6z"/>
			
				<rect x="1273.2" y="-193.7" transform="matrix(0.7071 0.7071 -0.7071 0.7071 242.6165 -957.5923)" fill="#FFFFFF" width="8" height="15.5"/>
		</g>
		<line fill="#FFFFFF" x1="1279.7" y1="-195.8" x2="1279.7" y2="-195.8"/>
		<line fill="#FFFFFF" x1="1287.3" y1="-188.3" x2="1287.3" y2="-188.3"/>
	</g>
	<path fill="#FFFFFF" d="M1368.9-210.7h-7.4c-0.5-1.7-1.2-3.5-2-5l5.2-5.2c0.2-0.2,0.3-0.4,0.3-0.7c0-0.3-0.1-0.5-0.3-0.7l-7.1-7.1
		c-0.4-0.4-1-0.4-1.4,0l-5.3,5.2c-1.6-0.9-3.7-1.7-5-2.1v-7.4c0-0.6-0.4-1-1-1h-10c-0.6,0-1,0.4-1,1v7.4c-1.4,0.4-3.4,1.2-5,2.1
		l-5.3-5.2c-0.4-0.4-1-0.4-1.4,0l-7.1,7.1c-0.4,0.4-0.4,1,0,1.4l5.3,5.3c-0.8,1.6-1.6,3.6-2,5h-7.4c-0.6,0-1,0.4-1,1v8
		c0,0.6,0.4,1,1,1h7.3c0.4,2.6,1.2,5.2,2.2,7l-5.3,5.3c-0.2,0.2-0.3,0.4-0.3,0.7c0,0.3,0.1,0.5,0.3,0.7l7.1,7.1c0.4,0.4,1,0.4,1.4,0
		l5.3-5.3c1.1,0.6,2.5,1.1,3.7,1.5c0.5,0.2,0.9,0.3,1.3,0.5v7.5c0,0.6,0.4,1,1,1h10c0.6,0,1-0.4,1-1v-7.5c0.4-0.1,0.8-0.3,1.3-0.5
		c1.2-0.4,2.6-0.9,3.7-1.5l5.3,5.3c0.4,0.4,1,0.4,1.4,0l7.1-7.1c0.4-0.4,0.4-1,0-1.4l-5.2-5.2c0.9-1.5,1.7-3.1,2.2-7h7.3
		c0.6,0,1-0.4,1-1v-8C1369.9-210.3,1369.4-210.7,1368.9-210.7z M1339.9-194.7c-5.5,0-10-4.5-10-10s4.5-10,10-10c5.5,0,10,4.5,10,10
		S1345.4-194.7,1339.9-194.7z"/>
	<path fill="#C9C9C9" d="M100,0C44.9,0,0,44.9,0,100c0,25.7,9.8,50.2,27.5,68.8c0,0,0,0,0,0l0,0c0,0,0,0,0,0c0,0,0,0,0,0
		c0,0,0,0,0,0c0,0,0,0,0,0c0,0,0,0,0,0c0,0,0,0,0,0c0,0,0,0,0,0c0,0,0,0,0,0l0,0c0,0,0,0,0,0c0,0,0,0,0,0v0c0,0,0,0,0,0c0,0,0,0,0,0
		c0,0,0,0,0,0c19.2,19.4,46.3,31,72.4,31c26.2,0,53.2-11.6,72.4-31c0,0,0,0,0-0.1c17.8-18.7,27.6-43.2,27.6-68.9
		C200,44.9,155.1,0,100,0z M169.4,162.3c-4.7-2.5-14.2-5.9-30.7-11.8c-6.2-2.2-12.7-4.5-18.6-6.7v-16.6c4-2.3,11.8-8.8,12.5-24.7
		c1.4-0.7,2.7-1.9,3.6-3.6c1.1-2,1.7-4.6,1.7-7.4c0-4.9-1.7-8.7-4.5-10.5c0-0.1,0.1-0.3,0.1-0.4c2-6.2,5.7-17.9,3.3-27.7
		c-2.8-11.2-18.2-15.1-30.6-15.1c-11.2,0-25,3.3-29.5,12.3c-5.8-0.5-9.1,2-10.7,4.1C61,61,64.6,73.8,66.5,80.6
		c0,0.1,0.1,0.2,0.1,0.4c-2.8,1.8-4.6,5.7-4.6,10.6c0,5.3,2.1,9.4,5.3,11c0.8,15.9,8.6,22.4,12.5,24.7v16.6
		c-5.4,2-11.3,3.9-16.9,5.7c-12.5,4.1-24.3,8-32.3,12.7C15.2,145.2,6.7,123.2,6.7,100C6.7,48.5,48.5,6.7,100,6.7
		s93.3,41.9,93.3,93.3C193.3,123.2,184.8,145.2,169.4,162.3z"/>
</g>
</svg>
