<?xml version="1.0" encoding="utf-8"?>
<!-- Generator: Adobe Illustrator 18.1.1, SVG Export Plug-In . SVG Version: 6.00 Build 0)  -->
<svg version="1.1" xmlns="http://www.w3.org/2000/svg" xmlns:xlink="http://www.w3.org/1999/xlink" x="0px" y="0px"
	 viewBox="0 0 560 240" style="enable-background:new 0 0 560 240;" xml:space="preserve">
<g id="Layer_2">
</g>
<g id="Layer_1">
	<g>
		<g>
			<path style="fill:#FFFFFF;" d="M66.194,19.226H32.774c-0.499,0-0.903,0.404-0.903,0.903v26.194c4.483,0,8.129,3.646,8.129,8.129
				h9.032c0-4.483,3.646-8.129,8.129-8.129s8.129,3.646,8.129,8.129h0.903c0.499,0,0.903-0.404,0.903-0.903V20.129
				C67.097,19.63,66.693,19.226,66.194,19.226z"/>
			<path style="fill:#FFFFFF;" d="M30.065,46.532V29.161c0-0.499-0.404-0.903-0.903-0.903h-8.129c-4.483,0-8.129,3.646-8.129,8.129
				v13.548h11.742c0.148,0,0.282,0.044,0.406,0.108C26.186,48.294,27.971,47.009,30.065,46.532z M21.935,35.484
				c-0.996,0-1.806,0.811-1.806,1.806v4.516c0,0.499-0.404,0.903-0.903,0.903c-0.499,0-0.903-0.404-0.903-0.903V37.29
				c0-1.992,1.62-3.613,3.613-3.613h4.516c0.499,0,0.903,0.404,0.903,0.903c0,0.499-0.404,0.903-0.903,0.903H21.935z"/>
			<path style="fill:#FFFFFF;" d="M12.903,51.742v4.516c0,0.499,0.404,0.903,0.903,0.903h10.41c-0.301-0.849-0.474-1.758-0.474-2.71
				c0-0.951,0.173-1.861,0.474-2.71H12.903z"/>
			<path style="fill:#FFFFFF;" d="M57.161,48.129c-3.486,0-6.323,2.836-6.323,6.323c0,3.486,2.837,6.323,6.323,6.323
				c3.486,0,6.323-2.836,6.323-6.323C63.484,50.965,60.647,48.129,57.161,48.129z"/>
			<path style="fill:#FFFFFF;" d="M31.871,48.129c-3.486,0-6.323,2.836-6.323,6.323c0,3.486,2.837,6.323,6.323,6.323
				s6.323-2.836,6.323-6.323C38.194,50.965,35.357,48.129,31.871,48.129z"/>
		</g>
		<path style="fill:#FFFFFF;" d="M40,80C17.944,80,0,62.056,0,40S17.944,0,40,0s40,17.944,40,40S62.056,80,40,80z M40,2.581
			C19.367,2.581,2.581,19.367,2.581,40S19.367,77.419,40,77.419S77.419,60.633,77.419,40S60.633,2.581,40,2.581z"/>
		<g>
			<path style="fill:#303030;" d="M35.143,29.157h1.111v3.824h0.025c0.177-0.316,0.454-0.606,0.795-0.795
				c0.328-0.19,0.72-0.304,1.136-0.304c0.82,0,2.133,0.505,2.133,2.601v3.634h-1.111v-3.508c0-0.985-0.365-1.806-1.413-1.806
				c-0.72,0-1.275,0.505-1.489,1.099c-0.063,0.164-0.076,0.328-0.076,0.529v3.686h-1.111V29.157z"/>
			<path style="fill:#303030;" d="M47.674,35.013c0,2.259-1.578,3.243-3.042,3.243c-1.641,0-2.928-1.211-2.928-3.143
				c0-2.031,1.351-3.231,3.029-3.231C46.487,31.883,47.674,33.158,47.674,35.013z M42.84,35.076c0,1.338,0.757,2.348,1.843,2.348
				c1.06,0,1.855-0.997,1.855-2.373c0-1.035-0.517-2.335-1.83-2.335C43.408,32.715,42.84,33.928,42.84,35.076z"/>
			<path style="fill:#303030;" d="M49.072,33.662c0-0.643-0.025-1.148-0.05-1.653h0.972l0.05,0.998h0.038
				c0.341-0.581,0.909-1.124,1.931-1.124c0.82,0,1.451,0.505,1.716,1.225h0.025c0.189-0.354,0.442-0.606,0.694-0.795
				c0.365-0.278,0.757-0.43,1.338-0.43c0.82,0,2.019,0.53,2.019,2.651v3.584H56.72v-3.445c0-1.187-0.442-1.881-1.325-1.881
				c-0.644,0-1.123,0.467-1.325,0.998c-0.05,0.164-0.089,0.353-0.089,0.554v3.774h-1.085v-3.661c0-0.972-0.429-1.666-1.275-1.666
				c-0.682,0-1.199,0.556-1.376,1.111c-0.063,0.151-0.088,0.353-0.088,0.542v3.673h-1.086V33.662z"/>
			<path style="fill:#303030;" d="M60.214,35.265c0.025,1.502,0.972,2.121,2.095,2.121c0.795,0,1.287-0.139,1.691-0.315l0.202,0.795
				c-0.391,0.176-1.073,0.391-2.044,0.391c-1.881,0-3.004-1.249-3.004-3.092c0-1.842,1.086-3.281,2.865-3.281
				c2.007,0,2.525,1.741,2.525,2.865c0,0.227-0.013,0.391-0.038,0.517H60.214z M63.47,34.47c0.013-0.693-0.29-1.792-1.54-1.792
				c-1.136,0-1.615,1.023-1.704,1.792H63.47z"/>
		</g>
	</g>
	<g>
		<g>
			<path style="fill:#3996F5;" d="M66.194,179.226H32.774c-0.499,0-0.903,0.404-0.903,0.903v26.194c4.483,0,8.129,3.646,8.129,8.129
				h9.032c0-4.483,3.646-8.129,8.129-8.129s8.129,3.646,8.129,8.129h0.903c0.499,0,0.903-0.404,0.903-0.903v-33.419
				C67.097,179.63,66.693,179.226,66.194,179.226z"/>
			<path style="fill:#3996F5;" d="M30.065,206.532v-17.371c0-0.499-0.404-0.903-0.903-0.903h-8.129
				c-4.483,0-8.129,3.646-8.129,8.129v13.548h11.742c0.148,0,0.282,0.044,0.406,0.108C26.186,208.294,27.971,207.009,30.065,206.532
				z M21.935,195.484c-0.996,0-1.806,0.811-1.806,1.806v4.516c0,0.499-0.404,0.903-0.903,0.903c-0.499,0-0.903-0.404-0.903-0.903
				v-4.516c0-1.992,1.62-3.613,3.613-3.613h4.516c0.499,0,0.903,0.404,0.903,0.903s-0.404,0.903-0.903,0.903H21.935z"/>
			<path style="fill:#3996F5;" d="M12.903,211.742v4.516c0,0.499,0.404,0.903,0.903,0.903h10.41
				c-0.301-0.849-0.474-1.758-0.474-2.71s0.173-1.861,0.474-2.71H12.903z"/>
			<path style="fill:#3996F5;" d="M57.161,208.129c-3.486,0-6.323,2.836-6.323,6.323s2.837,6.323,6.323,6.323
				c3.486,0,6.323-2.836,6.323-6.323S60.647,208.129,57.161,208.129z"/>
			<path style="fill:#3996F5;" d="M31.871,208.129c-3.486,0-6.323,2.836-6.323,6.323s2.837,6.323,6.323,6.323
				s6.323-2.836,6.323-6.323S35.357,208.129,31.871,208.129z"/>
		</g>
		<path style="fill:#3996F5;" d="M40,240c-22.056,0-40-17.944-40-40s17.944-40,40-40s40,17.944,40,40S62.056,240,40,240z
			 M40,162.581c-20.633,0-37.419,16.787-37.419,37.419S19.367,237.419,40,237.419S77.419,220.633,77.419,200
			S60.633,162.581,40,162.581z"/>
		<g>
			<path style="fill:#FFFFFF;" d="M35.143,189.157h1.111v3.824h0.025c0.177-0.316,0.454-0.606,0.795-0.795
				c0.328-0.19,0.72-0.304,1.136-0.304c0.82,0,2.133,0.505,2.133,2.601v3.634h-1.111v-3.508c0-0.985-0.365-1.806-1.413-1.806
				c-0.72,0-1.275,0.505-1.489,1.099c-0.063,0.164-0.076,0.328-0.076,0.529v3.686h-1.111V189.157z"/>
			<path style="fill:#FFFFFF;" d="M47.674,195.013c0,2.259-1.578,3.243-3.042,3.243c-1.641,0-2.928-1.211-2.928-3.143
				c0-2.031,1.351-3.231,3.029-3.231C46.487,191.883,47.674,193.158,47.674,195.013z M42.84,195.076
				c0,1.338,0.757,2.348,1.843,2.348c1.06,0,1.855-0.997,1.855-2.373c0-1.035-0.517-2.335-1.83-2.335
				C43.408,192.715,42.84,193.928,42.84,195.076z"/>
			<path style="fill:#FFFFFF;" d="M49.072,193.662c0-0.643-0.025-1.148-0.05-1.653h0.972l0.05,0.998h0.038
				c0.341-0.581,0.909-1.124,1.931-1.124c0.82,0,1.451,0.505,1.716,1.225h0.025c0.189-0.354,0.442-0.606,0.694-0.795
				c0.365-0.278,0.757-0.43,1.338-0.43c0.82,0,2.019,0.53,2.019,2.651v3.584H56.72v-3.445c0-1.187-0.442-1.881-1.325-1.881
				c-0.644,0-1.123,0.467-1.325,0.998c-0.05,0.164-0.089,0.353-0.089,0.554v3.774h-1.085v-3.661c0-0.972-0.429-1.666-1.275-1.666
				c-0.682,0-1.199,0.556-1.376,1.111c-0.063,0.151-0.088,0.353-0.088,0.542v3.673h-1.086V193.662z"/>
			<path style="fill:#FFFFFF;" d="M60.214,195.265c0.025,1.502,0.972,2.121,2.095,2.121c0.795,0,1.287-0.139,1.691-0.315
				l0.202,0.795c-0.391,0.176-1.073,0.391-2.044,0.391c-1.881,0-3.004-1.249-3.004-3.092c0-1.842,1.086-3.281,2.865-3.281
				c2.007,0,2.525,1.741,2.525,2.865c0,0.227-0.013,0.391-0.038,0.517H60.214z M63.47,194.47c0.013-0.693-0.29-1.792-1.54-1.792
				c-1.136,0-1.615,1.023-1.704,1.792H63.47z"/>
		</g>
	</g>
	<g>
		<g>
			<path style="fill:#FFFFFF;" d="M218.065,38.71c2.988,0,5.418-2.431,5.418-5.419c0-2.988-2.43-5.419-5.418-5.419
				c-2.989,0-5.42,2.431-5.42,5.419C212.645,36.279,215.076,38.71,218.065,38.71z"/>
			<path style="fill:#FFFFFF;" d="M209.346,40.516v0.903c0,5.55,0.409,11.547,5.105,13.136V64h7.226v-9.431
				c4.986-1.563,5.419-7.58,5.419-13.15v-0.903H209.346z"/>
			<path style="fill:#FFFFFF;" d="M200.001,20.645c2.988,0,5.418-2.431,5.418-5.419s-2.43-5.419-5.418-5.419
				c-2.989,0-5.42,2.431-5.42,5.419S197.012,20.645,200.001,20.645z"/>
			<path style="fill:#FFFFFF;" d="M191.282,23.355c0,5.639,0.409,11.731,5.105,13.328v9.252h7.226v-9.239
				c4.986-1.572,5.419-7.684,5.419-13.342v-0.903h-17.75V23.355z"/>
			<path style="fill:#FFFFFF;" d="M181.936,38.71c2.988,0,5.418-2.431,5.418-5.419c0-2.988-2.43-5.419-5.418-5.419
				c-2.989,0-5.42,2.431-5.42,5.419C176.516,36.279,178.947,38.71,181.936,38.71z"/>
			<path style="fill:#FFFFFF;" d="M172.903,41.42c0,5.399,0.635,11.704,5.419,13.328V64h7.226v-9.24
				c5.105-1.624,5.105-8.096,5.105-13.341v-0.903h-17.75V41.42z"/>
		</g>
		<path style="fill:#FFFFFF;" d="M200,80c-22.056,0-40-17.944-40-40s17.944-40,40-40s40,17.944,40,40S222.056,80,200,80z M200,2.581
			c-20.633,0-37.419,16.787-37.419,37.419S179.367,77.419,200,77.419S237.419,60.633,237.419,40S220.633,2.581,200,2.581z"/>
	</g>
	<g>
		<g>
			<path style="fill:#3996F5;" d="M218.065,198.71c2.988,0,5.418-2.431,5.418-5.419s-2.43-5.419-5.418-5.419
				c-2.989,0-5.42,2.431-5.42,5.419S215.076,198.71,218.065,198.71z"/>
			<path style="fill:#3996F5;" d="M209.346,200.516v0.903c0,5.55,0.409,11.547,5.105,13.136V224h7.226v-9.431
				c4.986-1.563,5.419-7.58,5.419-13.15v-0.903H209.346z"/>
			<path style="fill:#3996F5;" d="M200.001,180.645c2.988,0,5.418-2.431,5.418-5.419s-2.43-5.419-5.418-5.419
				c-2.989,0-5.42,2.431-5.42,5.419S197.012,180.645,200.001,180.645z"/>
			<path style="fill:#3996F5;" d="M191.282,183.355c0,5.639,0.409,11.731,5.105,13.328v9.252h7.226v-9.239
				c4.986-1.572,5.419-7.684,5.419-13.342v-0.903h-17.75V183.355z"/>
			<path style="fill:#3996F5;" d="M181.936,198.71c2.988,0,5.418-2.431,5.418-5.419s-2.43-5.419-5.418-5.419
				c-2.989,0-5.42,2.431-5.42,5.419S178.947,198.71,181.936,198.71z"/>
			<path style="fill:#3996F5;" d="M172.903,201.42c0,5.399,0.635,11.704,5.419,13.328V224h7.226v-9.24
				c5.105-1.624,5.105-8.096,5.105-13.341v-0.903h-17.75V201.42z"/>
		</g>
		<path style="fill:#3996F5;" d="M200,240c-22.056,0-40-17.944-40-40s17.944-40,40-40s40,17.944,40,40S222.056,240,200,240z
			 M200,162.581c-20.633,0-37.419,16.787-37.419,37.419s16.786,37.419,37.419,37.419s37.419-16.787,37.419-37.419
			S220.633,162.581,200,162.581z"/>
	</g>
	<g>
		<path style="fill:#FFFFFF;" d="M360,12.903c-10.459,0-18.968,8.509-18.968,18.968c0,10.159,17.497,33.857,18.243,34.861
			c0.17,0.23,0.439,0.365,0.725,0.365c0.286,0,0.555-0.135,0.725-0.365c0.745-1.004,18.243-24.702,18.243-34.861
			C378.967,21.412,370.458,12.903,360,12.903z M360,40c-4.483,0-8.129-3.646-8.129-8.129s3.646-8.129,8.129-8.129
			c4.483,0,8.129,3.646,8.129,8.129S364.482,40,360,40z"/>
		<path style="fill:#FFFFFF;" d="M360,80c-22.056,0-40-17.944-40-40s17.944-40,40-40s40,17.944,40,40S382.056,80,360,80z M360,2.581
			c-20.633,0-37.419,16.787-37.419,37.419S339.367,77.419,360,77.419S397.419,60.633,397.419,40S380.633,2.581,360,2.581z"/>
	</g>
	<g>
		<path style="fill:#3996F5;" d="M360,172.903c-10.459,0-18.968,8.509-18.968,18.968c0,10.159,17.497,33.857,18.243,34.861
			c0.17,0.23,0.439,0.365,0.725,0.365c0.286,0,0.555-0.135,0.725-0.365c0.745-1.004,18.243-24.702,18.243-34.861
			C378.967,181.412,370.458,172.903,360,172.903z M360,200c-4.483,0-8.129-3.646-8.129-8.129s3.646-8.129,8.129-8.129
			c4.483,0,8.129,3.646,8.129,8.129S364.482,200,360,200z"/>
		<path style="fill:#3996F5;" d="M360,240c-22.056,0-40-17.944-40-40s17.944-40,40-40s40,17.944,40,40S382.056,240,360,240z
			 M360,162.581c-20.633,0-37.419,16.787-37.419,37.419s16.786,37.419,37.419,37.419s37.419-16.787,37.419-37.419
			S380.633,162.581,360,162.581z"/>
	</g>
	<path style="fill:#FFFFFF;" d="M520,0c-22.056,0-40,17.944-40,40c0,10.299,3.902,20.074,10.987,27.535c0,0,0.001,0.002,0.002,0.003
		l0.001,0.001c0.002,0.001,0.003,0.003,0.003,0.003c0.001,0.001,0.001,0.001,0.001,0.001c0.005,0.006,0.01,0.011,0.015,0.017
		c0.002,0.002,0.003,0.003,0.005,0.005l0.001,0.001c0,0.001,0.001,0.001,0.003,0.003c0.001,0,0.001,0.001,0.004,0.004
		c0.001,0.001,0.002,0.002,0.003,0.003l0.001,0.001c0.002,0.002,0.004,0.004,0.006,0.006c0.001,0.002,0.003,0.004,0.005,0.005v0
		c0.004,0.003,0.007,0.007,0.01,0.011c0,0,0.001,0.001,0.001,0.001c0.002,0.002,0.004,0.004,0.006,0.007
		C498.733,75.366,509.555,80,520,80c10.468,0,21.29-4.634,28.949-12.397c0.007-0.007,0.009-0.017,0.017-0.025
		C556.081,60.107,560,50.313,560,40C560,17.944,542.056,0,520,0z M547.761,64.939c-1.869-0.983-5.67-2.37-12.279-4.708
		c-2.5-0.885-5.07-1.794-7.424-2.665v-6.648c1.59-0.921,4.715-3.529,5.019-9.898c0.572-0.291,1.063-0.778,1.421-1.428
		c0.442-0.803,0.686-1.853,0.686-2.954c0-1.945-0.695-3.477-1.807-4.215c0.019-0.059,0.038-0.119,0.057-0.177
		c0.799-2.497,2.286-7.147,1.309-11.063c-1.117-4.468-7.282-6.053-12.221-6.053c-4.492,0-9.997,1.311-11.798,4.909
		c-2.333-0.185-3.638,0.807-4.263,1.632c-2.057,2.714-0.619,7.836,0.154,10.587c0.014,0.048,0.027,0.095,0.04,0.143
		c-1.131,0.73-1.839,2.272-1.839,4.236c0,2.114,0.821,3.74,2.107,4.389c0.306,6.363,3.429,8.971,5.019,9.891v6.648
		c-2.175,0.796-4.505,1.557-6.767,2.296c-4.998,1.633-9.725,3.188-12.933,5.088c-6.177-6.862-9.575-15.676-9.575-24.95
		c0-20.586,16.747-37.333,37.333-37.333S557.333,19.414,557.333,40C557.333,49.264,553.937,58.074,547.761,64.939z"/>
	<path style="fill:#3996F5;" d="M520,160c-22.056,0-40,17.944-40,40c0,10.299,3.902,20.074,10.987,27.535
		c0,0,0.001,0.002,0.002,0.003l0.001,0.001c0.002,0.001,0.003,0.003,0.003,0.003c0.001,0.001,0.001,0.001,0.001,0.001
		c0.005,0.006,0.01,0.011,0.015,0.017c0.002,0.002,0.003,0.003,0.005,0.005l0.001,0.001c0,0.001,0.001,0.001,0.003,0.003
		c0.001,0,0.001,0.001,0.004,0.004c0.001,0.001,0.002,0.002,0.003,0.003l0.001,0.001c0.002,0.002,0.004,0.004,0.006,0.006
		c0.001,0.002,0.003,0.004,0.005,0.005v0c0.004,0.003,0.007,0.007,0.01,0.011c0,0,0.001,0.001,0.001,0.001
		c0.002,0.002,0.004,0.004,0.006,0.007C498.733,235.366,509.555,240,520,240c10.468,0,21.29-4.634,28.949-12.397
		c0.007-0.007,0.009-0.017,0.017-0.025C556.081,220.107,560,210.313,560,200C560,177.944,542.056,160,520,160z M547.761,224.939
		c-1.869-0.983-5.67-2.37-12.279-4.708c-2.5-0.885-5.07-1.794-7.424-2.665v-6.648c1.59-0.921,4.715-3.529,5.019-9.898
		c0.572-0.291,1.063-0.778,1.421-1.428c0.442-0.803,0.686-1.853,0.686-2.954c0-1.945-0.695-3.477-1.807-4.215
		c0.019-0.059,0.038-0.119,0.057-0.177c0.799-2.497,2.286-7.147,1.309-11.063c-1.117-4.468-7.282-6.053-12.221-6.053
		c-4.492,0-9.997,1.311-11.798,4.909c-2.333-0.185-3.638,0.807-4.263,1.632c-2.057,2.714-0.619,7.836,0.154,10.587
		c0.014,0.048,0.027,0.095,0.04,0.143c-1.131,0.73-1.839,2.272-1.839,4.236c0,2.114,0.821,3.74,2.107,4.389
		c0.306,6.363,3.429,8.971,5.019,9.891v6.648c-2.175,0.796-4.505,1.557-6.767,2.296c-4.998,1.633-9.725,3.188-12.933,5.088
		c-6.177-6.862-9.575-15.676-9.575-24.95c0-20.586,16.747-37.333,37.333-37.333s37.333,16.747,37.333,37.333
		C557.333,209.264,553.937,218.074,547.761,224.939z"/>
	<g>
	</g>
	<g>
	</g>
	<g>
	</g>
	<g>
	</g>
	<g>
	</g>
	<g>
	</g>
	<g>
	</g>
	<g>
	</g>
	<g>
	</g>
	<g>
	</g>
	<g>
	</g>
	<g>
	</g>
	<g>
	</g>
	<g>
	</g>
	<g>
	</g>
</g>
</svg>
