<?xml version="1.0" encoding="utf-8"?>
<!-- Generator: Adobe Illustrator 18.1.1, SVG Export Plug-In . SVG Version: 6.00 Build 0)  -->
<svg version="1.1" xmlns="http://www.w3.org/2000/svg" xmlns:xlink="http://www.w3.org/1999/xlink" x="0px" y="0px"
	 viewBox="0 0 640 1136" enable-background="new 0 0 640 1136" xml:space="preserve">
<symbol  id="Footer_Menu" viewBox="-320.5 -40.5 641 91">
	<linearGradient id="SVGID_1_" gradientUnits="userSpaceOnUse" x1="-2.019988e-09" y1="-40" x2="2.020706e-09" y2="50">
		<stop  offset="0" style="stop-color:#2B2B2B"/>
		<stop  offset="1" style="stop-color:#0F0F0F"/>
	</linearGradient>
	<polygon fill="url(#SVGID_1_)" stroke="#000000" stroke-miterlimit="10" points="320,-40 -320,-40 -320,50 320,50 	"/>
	<path fill="#FFFFFF" d="M271.6,35c-16.5,0-30-13.5-30-30c0-7.7,2.9-15.1,8.2-20.7c0,0,0,0,0,0l0,0c0,0,0,0,0,0c0,0,0,0,0,0
		c0,0,0,0,0,0c0,0,0,0,0,0c0,0,0,0,0,0c0,0,0,0,0,0c0,0,0,0,0,0c0,0,0,0,0,0l0,0c0,0,0,0,0,0c0,0,0,0,0,0v0c0,0,0,0,0,0c0,0,0,0,0,0
		c0,0,0,0,0,0c5.8-5.8,13.9-9.3,21.7-9.3c7.9,0,16,3.5,21.7,9.3c0,0,0,0,0,0c5.3,5.6,8.3,12.9,8.3,20.7
		C301.6,21.5,288.2,35,271.6,35z M292.4-13.7c-1.4,0.7-4.3,1.8-9.2,3.5c-1.9,0.7-3.8,1.3-5.6,2v5c1.2,0.7,3.5,2.6,3.8,7.4
		c0.4,0.2,0.8,0.6,1.1,1.1c0.3,0.6,0.5,1.4,0.5,2.2c0,1.5-0.5,2.6-1.4,3.2c0,0,0,0.1,0,0.1c0.6,1.9,1.7,5.4,1,8.3
		c-0.8,3.4-5.5,4.5-9.2,4.5c-3.4,0-7.5-1-8.8-3.7c-1.8,0.1-2.7-0.6-3.2-1.2c-1.5-2-0.5-5.9,0.1-7.9c0,0,0-0.1,0-0.1
		c-0.8-0.5-1.4-1.7-1.4-3.2c0-1.6,0.6-2.8,1.6-3.3c0.2-4.8,2.6-6.7,3.8-7.4v-5c-1.6-0.6-3.4-1.2-5.1-1.7c-3.7-1.2-7.3-2.4-9.7-3.8
		C246.2-8.6,243.6-2,243.6,5c0,15.4,12.6,28,28,28s28-12.6,28-28C299.6-1.9,297.1-8.6,292.4-13.7z"/>
	<g>
		<g>
			<path fill="#FFFFFF" d="M-74.4,6c2.3,0,4.2,1.9,4.2,4.2s-1.9,4.2-4.2,4.2c-2.3,0-4.2-1.9-4.2-4.2S-76.7,6-74.4,6z"/>
			<path fill="#FFFFFF" d="M-81.1,4.6V3.9c0-4.3,0.3-8.9,4-10.2v-7.3h5.6v7.3c3.9,1.2,4.2,5.9,4.2,10.2v0.7H-81.1z"/>
			<path fill="#FFFFFF" d="M-88.4,20c2.3,0,4.2,1.9,4.2,4.2s-1.9,4.2-4.2,4.2c-2.3,0-4.2-1.9-4.2-4.2S-90.7,20-88.4,20z"/>
			<path fill="#FFFFFF" d="M-95.1,17.9c0-4.4,0.3-9.1,4-10.3V0.4h5.6v7.2c3.9,1.2,4.2,6,4.2,10.3v0.7h-13.8V17.9z"/>
			<path fill="#FFFFFF" d="M-102.4,6c2.3,0,4.2,1.9,4.2,4.2s-1.9,4.2-4.2,4.2c-2.3,0-4.2-1.9-4.2-4.2S-104.7,6-102.4,6z"/>
			<path fill="#FFFFFF" d="M-109.4,3.9c0-4.2,0.5-9.1,4.2-10.3v-7.2h5.6v7.2c4,1.3,4,6.3,4,10.3v0.7h-13.8V3.9z"/>
		</g>
		<path fill="none" stroke="#FFFFFF" stroke-width="2" stroke-miterlimit="10" d="M-58.4,5c0-16.6-13.4-30-30-30s-30,13.4-30,30
			s13.4,30,30,30S-58.4,21.6-58.4,5z"/>
	</g>
	<g>
		<path fill="#FFFFFF" d="M91.6,26c-8.1,0-14.7-6.6-14.7-14.7c0-7.9,13.6-26.2,14.1-27c0.1-0.2,0.3-0.3,0.6-0.3s0.4,0.1,0.6,0.3
			c0.6,0.8,14.1,19.1,14.1,27C106.3,19.4,99.7,26,91.6,26z M91.6,5c-3.5,0-6.3,2.8-6.3,6.3s2.8,6.3,6.3,6.3s6.3-2.8,6.3-6.3
			S95.1,5,91.6,5z"/>
		<path fill="none" stroke="#FFFFFF" stroke-width="2" stroke-miterlimit="10" d="M121.6,5c0-16.6-13.4-30-30-30s-30,13.4-30,30
			s13.4,30,30,30S121.6,21.6,121.6,5z"/>
	</g>
	<g>
		<g>
			<path fill="#FFFFFF" d="M-248.1,21.1H-274c-0.4,0-0.7-0.3-0.7-0.7V0.1c3.5,0,6.3-2.8,6.3-6.3h7c0,3.5,2.8,6.3,6.3,6.3
				c3.5,0,6.3-2.8,6.3-6.3h0.7c0.4,0,0.7,0.3,0.7,0.7v25.9C-247.4,20.8-247.7,21.1-248.1,21.1z"/>
			<path fill="#FFFFFF" d="M-276.1-0.1v13.5c0,0.4-0.3,0.7-0.7,0.7h-6.3c-3.5,0-6.3-2.8-6.3-6.3V-2.7h9.1c0.1,0,0.2,0,0.3-0.1
				C-279.1-1.4-277.7-0.4-276.1-0.1z M-282.4,8.5c-0.8,0-1.4-0.6-1.4-1.4V3.6c0-0.4-0.3-0.7-0.7-0.7c-0.4,0-0.7,0.3-0.7,0.7v3.5
				c0,1.5,1.3,2.8,2.8,2.8h3.5c0.4,0,0.7-0.3,0.7-0.7c0-0.4-0.3-0.7-0.7-0.7H-282.4z"/>
			<path fill="#FFFFFF" d="M-289.4-4.1v-3.5c0-0.4,0.3-0.7,0.7-0.7h8.1c-0.2,0.7-0.4,1.4-0.4,2.1s0.1,1.4,0.4,2.1H-289.4z"/>
			<path fill="#FFFFFF" d="M-255.1-1.3c-2.7,0-4.9-2.2-4.9-4.9s2.2-4.9,4.9-4.9s4.9,2.2,4.9,4.9S-252.4-1.3-255.1-1.3z"/>
			<path fill="#FFFFFF" d="M-274.7-1.3c-2.7,0-4.9-2.2-4.9-4.9s2.2-4.9,4.9-4.9c2.7,0,4.9,2.2,4.9,4.9S-272-1.3-274.7-1.3z"/>
		</g>
		<path fill="none" stroke="#FFFFFF" stroke-width="2" stroke-miterlimit="10" d="M-238.4,5c0-16.6-13.4-30-30-30s-30,13.4-30,30
			s13.4,30,30,30S-238.4,21.6-238.4,5z"/>
		<text transform="matrix(1 0 0 -1 -272.8584 6.459)" fill="#303030" font-family="'MyriadPro-Regular'" font-size="9.7783">home</text>
	</g>
</symbol>
<g id="Layer_2" display="none">
	<rect y="-0.7" display="inline" fill="#DBDBDD" width="640" height="1137.4"/>
</g>
<g id="Layer_1">
	<linearGradient id="SVGID_2_" gradientUnits="userSpaceOnUse" x1="1079" y1="80" x2="1079" y2="-1.436729e-08">
		<stop  offset="0" style="stop-color:#0071BC"/>
		<stop  offset="1" style="stop-color:#29ABE2"/>
	</linearGradient>
	<rect x="759" fill="url(#SVGID_2_)" stroke="#000000" stroke-miterlimit="10" width="640" height="80"/>
	<path fill="#C9C9C9" d="M1071,172.7c-55.1,0-100,44.9-100,100c0,25.7,9.8,50.2,27.5,68.8c0,0,0,0,0,0l0,0c0,0,0,0,0,0c0,0,0,0,0,0
		c0,0,0,0,0,0c0,0,0,0,0,0c0,0,0,0,0,0c0,0,0,0,0,0c0,0,0,0,0,0c0,0,0,0,0,0l0,0c0,0,0,0,0,0c0,0,0,0,0,0v0c0,0,0,0,0,0c0,0,0,0,0,0
		c0,0,0,0,0,0c19.2,19.4,46.3,31,72.4,31c26.2,0,53.2-11.6,72.4-31c0,0,0,0,0-0.1c17.8-18.7,27.6-43.2,27.6-68.9
		C1171,217.6,1126.1,172.7,1071,172.7z M1140.4,335.1c-4.7-2.5-14.2-5.9-30.7-11.8c-6.2-2.2-12.7-4.5-18.6-6.7V300
		c4-2.3,11.8-8.8,12.5-24.7c1.4-0.7,2.7-1.9,3.6-3.6c1.1-2,1.7-4.6,1.7-7.4c0-4.9-1.7-8.7-4.5-10.5c0-0.1,0.1-0.3,0.1-0.4
		c2-6.2,5.7-17.9,3.3-27.7c-2.8-11.2-18.2-15.1-30.6-15.1c-11.2,0-25,3.3-29.5,12.3c-5.8-0.5-9.1,2-10.7,4.1
		c-5.1,6.8-1.5,19.6,0.4,26.5c0,0.1,0.1,0.2,0.1,0.4c-2.8,1.8-4.6,5.7-4.6,10.6c0,5.3,2.1,9.4,5.3,11c0.8,15.9,8.6,22.4,12.5,24.7
		v16.6c-5.4,2-11.3,3.9-16.9,5.7c-12.5,4.1-24.3,8-32.3,12.7c-15.4-17.2-23.9-39.2-23.9-62.4c0-51.5,41.9-93.3,93.3-93.3
		c51.5,0,93.3,41.9,93.3,93.3C1164.3,295.9,1155.8,317.9,1140.4,335.1z"/>
	<text transform="matrix(1 0 0 1 921.9878 143.9062)" fill="#767677" font-family="'PTSans-Regular'" font-size="45.75">my pioneer road</text>
	<text transform="matrix(1 0 0 1 966.8781 508.1615)" font-family="'MyriadPro-Regular'" font-size="44.25">view my own profile</text>
	<rect x="780.6" y="400.8" fill="none" stroke="#C9C9C9" stroke-miterlimit="10" width="600" height="174.7"/>
	
		<use xlink:href="#Footer_Menu"  width="641" height="91" id="XMLID_2_" x="-320.5" y="-40.5" transform="matrix(1 0 0 -1 1079 1096)" overflow="visible"/>
	<g>
		<polygon fill="#58595B" points="867.2,730 864.1,740.8 874.9,737.7 		"/>
		
			<rect x="890.3" y="703.9" transform="matrix(-0.7071 -0.7071 0.7071 -0.7071 1030.0502 1843.0481)" fill="#58595B" width="12.9" height="8.7"/>
		<g>
			<path fill="#58595B" d="M879.8,715l-0.8-10.8c-0.1-0.7-0.5-1.3-1.1-1.5l-13.7-4.7c-2.2-0.7-4.4-1.6-6.6-2.4
				c-0.8-0.3-1.5-0.6-2.3-0.9v-8.1c1.8-1.3,5.6-5,5.9-12.9c0.7-0.4,1.3-1,1.7-1.9c0.5-1,0.8-2.4,0.8-3.8c0-2.5-0.8-4.4-2.1-5.4
				c1-2.5,2.9-7.2,1.7-12c-1.4-5.5-9.2-7.4-15.5-7.4c-5.7,0-12.7,1.6-15,5.9c-3-0.2-4.6,1-5.4,2c-2.3,3.1-0.7,8.6,0.1,11.6
				c0,0,0,0,0,0.1c-0.5,0.4-1,0.9-1.4,1.6c-0.5,1-0.8,2.3-0.8,3.7c0,2.7,1,4.7,2.5,5.6c0.4,8.2,5.1,12.9,7,14.4v6.5
				c-2.8,1-5.7,2-8.6,2.9c-9.7,3.2-18.1,6-19.7,10.7c-2.1,6.3-2.2,17.6-2.2,18.1c0,0.5,0.2,0.9,0.5,1.2c0.3,0.3,0.8,0.5,1.2,0.5
				h60.6L879.8,715z"/>
			
				<rect x="875.9" y="710" transform="matrix(0.7071 0.7071 -0.7071 0.7071 769.3823 -412.3153)" fill="#58595B" width="12.9" height="25.2"/>
		</g>
		<line fill="#58595B" x1="886.5" y1="706.5" x2="886.5" y2="706.5"/>
		<line fill="#58595B" x1="898.8" y1="718.8" x2="898.8" y2="718.8"/>
	</g>
	<text transform="matrix(1 0 0 1 966.8781 705.0289)" font-family="'MyriadPro-Regular'" font-size="44.25">edit my profile</text>
	<rect x="780.6" y="597.7" fill="none" stroke="#C9C9C9" stroke-miterlimit="10" width="600" height="174.7"/>
	<path fill="#58595B" d="M903.9,544.7l-31-31c6.5-7,10.4-16.4,10.4-26.7c0-21.8-17.7-39.5-39.5-39.5c-21.8,0-39.5,17.7-39.5,39.5
		s17.7,39.5,39.5,39.5c10.3,0,19.7-4,26.7-10.4l31,31c0.3,0.3,0.8,0.5,1.2,0.5c0.4,0,0.9-0.2,1.2-0.5
		C904.5,546.4,904.5,545.3,903.9,544.7z M862.1,512c-0.9-0.4-1.7-0.8-2.6-1.3c-2.5-1.2-4.9-2.4-7.4-3.4c-0.6-0.3-1-0.9-1-1.5v-8.3
		c0-0.7,0.4-1.3,1.1-1.6c0,0,2.7-1.5,2.7-9c0-0.9,0.7-1.7,1.7-1.7c0.4-0.2,1.3-2.2,1-4c-0.2-1.1-0.6-1.1-0.8-1.1
		c-0.9,0-1.7-0.7-1.7-1.7c0-0.6,0.2-1.1,0.6-2c0.8-1.8,2.2-4.9,1.4-8.1c-0.9-3.5-6.3-5-11-5h0c-4.7,0-10.1,1.6-11,5
		c-0.2,0.9-1.1,1.4-2,1.2c-1.6-0.3-2.2-0.1-2.4,0.1c-0.5,0.6,0,2.8,1.5,6.4c0.5,1.3,0.8,1.8,0.8,2.4c0,0.9-0.7,1.7-1.7,1.7
		c-0.2,0-0.7,0-1,1.2c-0.3,1.8,0.5,3.7,1,3.9c0.9,0,1.6,0.7,1.6,1.7c0,7.5,3.5,8.9,3.6,8.9c0.7,0.2,1.1,0.9,1.1,1.6v8.3
		c0,0.7-0.4,1.3-1,1.5l-0.8,0.3c-3.3,1.3-7.1,2.8-10.2,4.3l-1.4-3c3.1-1.5,6.8-3,10.1-4.3v-6.2c-1.6-1-4.4-3.8-4.8-10.3
		c-1.7-1-2.7-3.5-2.7-6c0-1.3,0.3-2.5,0.9-3.4c0.4-0.5,0.8-1,1.3-1.3c0,0,0,0,0,0c-1.2-2.9-3.1-7.3-1-9.8c0.9-1.1,2.3-1.6,4.2-1.4
		c2.2-4.5,8.5-6.1,13.7-6.1h0c5.7,0,12.8,2,14.2,7.6c1,4-0.5,7.7-1.4,9.9c0.5,0.3,0.9,0.7,1.2,1.2c0.6,0.9,0.9,2.1,0.9,3.4
		c0,2.5-1,5-2.7,6c-0.2,6.4-2.4,9.1-3.7,10.2v6.3c2.2,0.9,4.4,2,6.5,3c0.9,0.4,1.7,0.8,2.6,1.2L862.1,512z"/>
	<text transform="matrix(1 0 0 1 966.8781 895.0289)" font-family="'MyriadPro-Regular'" font-size="44.25">change my settings</text>
	<rect x="780.6" y="794.7" fill="none" stroke="#C9C9C9" stroke-miterlimit="10" width="600" height="174.7"/>
	<path fill="#58595B" d="M902.7,872h-12.4c-0.8-2.9-2-5.8-3.4-8.3l8.7-8.7c0.3-0.3,0.5-0.7,0.5-1.2c0-0.4-0.2-0.9-0.5-1.2
		l-11.9-11.9c-0.7-0.7-1.7-0.7-2.4,0l-8.8,8.7c-2.6-1.4-6.1-2.8-8.3-3.4v-12.4c0-0.9-0.7-1.7-1.7-1.7H846c-0.9,0-1.7,0.7-1.7,1.7
		v12.4c-2.3,0.7-5.6,2-8.3,3.4l-8.8-8.7c-0.7-0.7-1.7-0.7-2.4,0l-11.9,11.9c-0.7,0.7-0.7,1.7,0,2.4l8.8,8.8c-1.4,2.6-2.7,6-3.4,8.3
		H806c-0.9,0-1.7,0.7-1.7,1.7V887c0,0.9,0.7,1.7,1.7,1.7h12.2c0.7,4.3,2.1,8.6,3.6,11.6l-8.8,8.8c-0.3,0.3-0.5,0.7-0.5,1.2
		c0,0.4,0.2,0.9,0.5,1.2l11.9,11.9c0.6,0.6,1.7,0.6,2.4,0l8.8-8.8c1.9,1,4.2,1.8,6.2,2.5c0.8,0.3,1.5,0.5,2.1,0.8v12.6
		c0,0.9,0.7,1.7,1.7,1.7h16.7c0.9,0,1.7-0.7,1.7-1.7v-12.6c0.6-0.2,1.3-0.5,2.1-0.8c1.9-0.7,4.3-1.5,6.2-2.5l8.8,8.8
		c0.7,0.7,1.7,0.7,2.4,0l11.9-11.9c0.7-0.7,0.7-1.7,0-2.4l-8.7-8.7c1.5-2.6,2.8-5.1,3.6-11.7h12.2c0.9,0,1.7-0.7,1.7-1.7v-13.3
		C904.4,872.8,903.6,872,902.7,872z M854.4,898.7c-9.2,0-16.7-7.5-16.7-16.7c0-9.2,7.5-16.7,16.7-16.7S871,872.9,871,882
		C871,891.2,863.6,898.7,854.4,898.7z"/>
	<path fill="#FFFFFF" d="M845.5,70.3L827,51.7c3.9-4.2,6.3-9.8,6.3-16c0-13.1-10.6-23.7-23.7-23.7c-13.1,0-23.7,10.6-23.7,23.7
		s10.6,23.7,23.7,23.7c6.2,0,11.8-2.4,16-6.3l18.6,18.6c0.2,0.2,0.5,0.3,0.7,0.3c0.3,0,0.5-0.1,0.7-0.3
		C845.9,71.3,845.9,70.7,845.5,70.3z M820.4,50.7c-0.5-0.2-1-0.5-1.6-0.8c-1.5-0.7-2.9-1.4-4.4-2c-0.4-0.2-0.6-0.5-0.6-0.9v-5
		c0-0.4,0.3-0.8,0.6-0.9c0,0,1.6-0.9,1.6-5.4c0-0.6,0.4-1,1-1c0.2-0.1,0.8-1.3,0.6-2.4c-0.1-0.7-0.4-0.7-0.5-0.7c-0.6,0-1-0.4-1-1
		c0-0.3,0.1-0.7,0.4-1.2c0.5-1.1,1.3-2.9,0.8-4.9c-0.5-2.1-3.8-3-6.6-3h0c-2.8,0-6.1,0.9-6.6,3c-0.1,0.5-0.6,0.8-1.2,0.7
		c-0.9-0.2-1.3-0.1-1.4,0c-0.3,0.4,0,1.7,0.9,3.8c0.3,0.8,0.5,1.1,0.5,1.4c0,0.6-0.4,1-1,1c-0.1,0-0.4,0-0.6,0.7
		c-0.2,1.1,0.3,2.2,0.6,2.4c0.6,0,1,0.4,1,1c0,4.5,2.1,5.3,2.2,5.4c0.4,0.1,0.7,0.5,0.7,0.9v5c0,0.4-0.2,0.8-0.6,0.9l-0.5,0.2
		c-2,0.8-4.3,1.7-6.1,2.6l-0.9-1.8c1.9-0.9,4.1-1.8,6.1-2.6v-3.7c-1-0.6-2.7-2.3-2.9-6.2c-1-0.6-1.6-2.1-1.6-3.6
		c0-0.8,0.2-1.5,0.5-2.1c0.2-0.3,0.5-0.6,0.8-0.8c0,0,0,0,0,0c-0.7-1.7-1.9-4.4-0.6-5.9c0.5-0.7,1.4-0.9,2.5-0.9
		c1.3-2.7,5.1-3.7,8.2-3.7h0c3.4,0,7.7,1.2,8.5,4.5c0.6,2.4-0.3,4.6-0.8,5.9c0.3,0.2,0.5,0.4,0.7,0.7c0.3,0.5,0.5,1.2,0.5,2
		c0,1.5-0.6,3-1.6,3.6c-0.1,3.8-1.4,5.5-2.2,6.1v3.8c1.3,0.6,2.7,1.2,3.9,1.8c0.5,0.2,1,0.5,1.5,0.7L820.4,50.7z"/>
	<g>
		<polygon fill="#FFFFFF" points="997,65.3 995.1,72 1001.8,70.1 		"/>
		
			<rect x="1011.2" y="49.3" transform="matrix(-0.7071 -0.7071 0.7071 -0.7071 1696.2775 806.5161)" fill="#FFFFFF" width="8" height="5.3"/>
		<g>
			<path fill="#FFFFFF" d="M1004.7,56.1l-0.5-6.6c0-0.4-0.3-0.8-0.7-0.9l-8.4-2.9c-1.4-0.4-2.7-1-4.1-1.5c-0.5-0.2-0.9-0.4-1.4-0.6
				v-5c1.1-0.8,3.4-3.1,3.7-7.9c0.4-0.2,0.8-0.6,1.1-1.2c0.3-0.6,0.5-1.5,0.5-2.3c0-1.5-0.5-2.7-1.3-3.3c0.6-1.6,1.8-4.4,1-7.4
				c-0.8-3.4-5.7-4.5-9.6-4.5c-3.5,0-7.8,1-9.2,3.7c-1.8-0.2-2.8,0.6-3.3,1.2c-1.4,1.9-0.4,5.3,0.1,7.1c0,0,0,0,0,0
				c-0.3,0.2-0.6,0.6-0.8,1c-0.3,0.6-0.5,1.4-0.5,2.3c0,1.6,0.6,2.9,1.6,3.4c0.3,5.1,3.1,7.9,4.3,8.9v4c-1.7,0.6-3.5,1.2-5.3,1.8
				c-6,2-11.2,3.7-12.1,6.6c-1.3,3.9-1.4,10.8-1.4,11.1c0,0.3,0.1,0.5,0.3,0.7c0.2,0.2,0.5,0.3,0.7,0.3h37.3L1004.7,56.1z"/>
			
				<rect x="1002.4" y="53" transform="matrix(0.7071 0.7071 -0.7071 0.7071 337.7357 -693.8054)" fill="#FFFFFF" width="8" height="15.5"/>
		</g>
		<line fill="#FFFFFF" x1="1008.9" y1="50.9" x2="1008.9" y2="50.9"/>
		<line fill="#FFFFFF" x1="1016.5" y1="58.5" x2="1016.5" y2="58.5"/>
	</g>
	<path fill="#FFFFFF" d="M1202.3,36h-7.4c-0.5-1.7-1.2-3.5-2-5l5.2-5.2c0.2-0.2,0.3-0.4,0.3-0.7c0-0.3-0.1-0.5-0.3-0.7l-7.1-7.1
		c-0.4-0.4-1-0.4-1.4,0l-5.3,5.2c-1.6-0.9-3.7-1.7-5-2.1V13c0-0.6-0.4-1-1-1h-10c-0.6,0-1,0.4-1,1v7.4c-1.4,0.4-3.4,1.2-5,2.1
		l-5.3-5.2c-0.4-0.4-1-0.4-1.4,0l-7.1,7.1c-0.4,0.4-0.4,1,0,1.4l5.3,5.3c-0.8,1.6-1.6,3.6-2,5h-7.4c-0.6,0-1,0.4-1,1v8
		c0,0.6,0.4,1,1,1h7.3c0.4,2.6,1.2,5.2,2.2,7l-5.3,5.3c-0.2,0.2-0.3,0.4-0.3,0.7c0,0.3,0.1,0.5,0.3,0.7l7.1,7.1c0.4,0.4,1,0.4,1.4,0
		l5.3-5.3c1.1,0.6,2.5,1.1,3.7,1.5c0.5,0.2,0.9,0.3,1.3,0.5V71c0,0.6,0.4,1,1,1h10c0.6,0,1-0.4,1-1v-7.5c0.4-0.1,0.8-0.3,1.3-0.5
		c1.2-0.4,2.6-0.9,3.7-1.5l5.3,5.3c0.4,0.4,1,0.4,1.4,0l7.1-7.1c0.4-0.4,0.4-1,0-1.4l-5.2-5.2c0.9-1.5,1.7-3.1,2.2-7h7.3
		c0.6,0,1-0.4,1-1v-8C1203.3,36.4,1202.9,36,1202.3,36z M1173.3,52c-5.5,0-10-4.5-10-10s4.5-10,10-10c5.5,0,10,4.5,10,10
		S1178.8,52,1173.3,52z"/>
	
		<use xlink:href="#Footer_Menu"  width="641" height="91" id="XMLID_1_" x="-320.5" y="-40.5" transform="matrix(1 0 0 -1 1774 1095.5)" overflow="visible"/>
	<linearGradient id="SVGID_3_" gradientUnits="userSpaceOnUse" x1="1774" y1="78.0735" x2="1774" y2="-1.9265">
		<stop  offset="0" style="stop-color:#2B2B2B"/>
		<stop  offset="1" style="stop-color:#0F0F0F"/>
	</linearGradient>
	<rect x="1454" y="-1.9" fill="url(#SVGID_3_)" stroke="#000000" stroke-miterlimit="10" width="640" height="80"/>
	<g>
		<g>
			<path fill="#C9C9C9" d="M1820.7,269.4c7.7,0,14-6.3,14-14c0-7.7-6.3-14-14-14c-7.7,0-14,6.3-14,14
				C1806.7,263.1,1812.9,269.4,1820.7,269.4z"/>
			<path fill="#C9C9C9" d="M1798.1,274v2.3c0,14.3,1.1,29.8,13.2,33.9v24.4h18.7v-24.4c12.9-4,14-19.6,14-34V274H1798.1z"/>
			<path fill="#C9C9C9" d="M1774,222.7c7.7,0,14-6.3,14-14s-6.3-14-14-14c-7.7,0-14,6.3-14,14S1766.3,222.7,1774,222.7z"/>
			<path fill="#C9C9C9" d="M1751.5,229.7c0,14.6,1.1,30.3,13.2,34.4V288h18.7v-23.9c12.9-4.1,14-19.8,14-34.5v-2.3h-45.9V229.7z"/>
			<path fill="#C9C9C9" d="M1727.3,269.4c7.7,0,14-6.3,14-14c0-7.7-6.3-14-14-14c-7.7,0-14,6.3-14,14
				C1713.3,263.1,1719.6,269.4,1727.3,269.4z"/>
			<path fill="#C9C9C9" d="M1704,276.4c0,13.9,1.6,30.2,14,34.4v23.9h18.7v-23.9c13.2-4.2,13.2-20.9,13.2-34.5V274H1704V276.4z"/>
		</g>
		<circle fill="none" stroke="#C9C9C9" stroke-width="8" stroke-miterlimit="10" cx="1774" cy="272.7" r="100"/>
	</g>
	<text transform="matrix(1 0 0 1 1708.2808 143.9062)" fill="#767677" font-family="'MyriadPro-Regular'" font-size="45.75">friends</text>
	<path fill="#FFFFFF" d="M255.3,0c-16.5,0-30,13.5-30,30c0,7.7,2.9,15.1,8.2,20.7c0,0,0,0,0,0l0,0c0,0,0,0,0,0c0,0,0,0,0,0
		c0,0,0,0,0,0c0,0,0,0,0,0c0,0,0,0,0,0c0,0,0,0,0,0c0,0,0,0,0,0c0,0,0,0,0,0l0,0c0,0,0,0,0,0c0,0,0,0,0,0v0c0,0,0,0,0,0c0,0,0,0,0,0
		c0,0,0,0,0,0c5.8,5.8,13.9,9.3,21.7,9.3c7.9,0,16-3.5,21.7-9.3c0,0,0,0,0,0c5.3-5.6,8.3-12.9,8.3-20.7C285.3,13.5,271.9,0,255.3,0z
		 M276.1,48.7c-1.4-0.7-4.3-1.8-9.2-3.5c-1.9-0.7-3.8-1.3-5.6-2v-5c1.2-0.7,3.5-2.6,3.8-7.4c0.4-0.2,0.8-0.6,1.1-1.1
		c0.3-0.6,0.5-1.4,0.5-2.2c0-1.5-0.5-2.6-1.4-3.2c0,0,0-0.1,0-0.1c0.6-1.9,1.7-5.4,1-8.3c-0.8-3.4-5.5-4.5-9.2-4.5
		c-3.4,0-7.5,1-8.8,3.7c-1.8-0.1-2.7,0.6-3.2,1.2c-1.5,2-0.5,5.9,0.1,7.9c0,0,0,0.1,0,0.1c-0.8,0.5-1.4,1.7-1.4,3.2
		c0,1.6,0.6,2.8,1.6,3.3c0.2,4.8,2.6,6.7,3.8,7.4v5c-1.6,0.6-3.4,1.2-5.1,1.7c-3.7,1.2-7.3,2.4-9.7,3.8c-4.6-5.1-7.2-11.8-7.2-18.7
		c0-15.4,12.6-28,28-28s28,12.6,28,28C283.3,36.9,280.8,43.6,276.1,48.7z"/>
	<path fill="#C9C9C9" d="M331.9,1.4c-16.5,0-30,13.5-30,30c0,7.7,2.9,15.1,8.2,20.7c0,0,0,0,0,0l0,0c0,0,0,0,0,0c0,0,0,0,0,0
		c0,0,0,0,0,0c0,0,0,0,0,0c0,0,0,0,0,0c0,0,0,0,0,0c0,0,0,0,0,0c0,0,0,0,0,0l0,0c0,0,0,0,0,0c0,0,0,0,0,0v0c0,0,0,0,0,0c0,0,0,0,0,0
		c0,0,0,0,0,0c5.8,5.8,13.9,9.3,21.7,9.3c7.9,0,16-3.5,21.7-9.3c0,0,0,0,0,0c5.3-5.6,8.3-12.9,8.3-20.7
		C361.9,14.9,348.4,1.4,331.9,1.4z M352.7,50.1c-1.4-0.7-4.3-1.8-9.2-3.5c-1.9-0.7-3.8-1.3-5.6-2v-5c1.2-0.7,3.5-2.6,3.8-7.4
		c0.4-0.2,0.8-0.6,1.1-1.1c0.3-0.6,0.5-1.4,0.5-2.2c0-1.5-0.5-2.6-1.4-3.2c0,0,0-0.1,0-0.1c0.6-1.9,1.7-5.4,1-8.3
		c-0.8-3.4-5.5-4.5-9.2-4.5c-3.4,0-7.5,1-8.8,3.7c-1.8-0.1-2.7,0.6-3.2,1.2c-1.5,2-0.5,5.9,0.1,7.9c0,0,0,0.1,0,0.1
		c-0.8,0.5-1.4,1.7-1.4,3.2c0,1.6,0.6,2.8,1.6,3.3c0.2,4.8,2.6,6.7,3.8,7.4v5c-1.6,0.6-3.4,1.2-5.1,1.7c-3.7,1.2-7.3,2.4-9.7,3.8
		c-4.6-5.1-7.2-11.8-7.2-18.7c0-15.4,12.6-28,28-28s28,12.6,28,28C359.9,38.3,357.3,45,352.7,50.1z"/>
	<g>
		<g>
			<path fill="#FFFFFF" d="M121.3,30c2.3,0,4.2-1.9,4.2-4.2s-1.9-4.2-4.2-4.2c-2.3,0-4.2,1.9-4.2,4.2S118.9,30,121.3,30z"/>
			<path fill="#FFFFFF" d="M114.5,31.4v0.7c0,4.3,0.3,8.9,4,10.2v7.3h5.6v-7.3c3.9-1.2,4.2-5.9,4.2-10.2v-0.7H114.5z"/>
			<path fill="#FFFFFF" d="M107.3,16c2.3,0,4.2-1.9,4.2-4.2s-1.9-4.2-4.2-4.2c-2.3,0-4.2,1.9-4.2,4.2S104.9,16,107.3,16z"/>
			<path fill="#FFFFFF" d="M100.5,18.1c0,4.4,0.3,9.1,4,10.3v7.2h5.6v-7.2c3.9-1.2,4.2-6,4.2-10.3v-0.7h-13.8V18.1z"/>
			<path fill="#FFFFFF" d="M93.3,30c2.3,0,4.2-1.9,4.2-4.2s-1.9-4.2-4.2-4.2c-2.3,0-4.2,1.9-4.2,4.2S90.9,30,93.3,30z"/>
			<path fill="#FFFFFF" d="M86.3,32.1c0,4.2,0.5,9.1,4.2,10.3v7.2h5.6v-7.2c4-1.3,4-6.3,4-10.3v-0.7H86.3V32.1z"/>
		</g>
		<path fill="#FFFFFF" d="M107.3,62c-17.1,0-31-13.9-31-31s13.9-31,31-31s31,13.9,31,31S124.4,62,107.3,62z M107.3,2
			c-16,0-29,13-29,29s13,29,29,29s29-13,29-29S123.3,2,107.3,2z"/>
	</g>
	<g>
		<path fill="#FFFFFF" d="M181.3,10c-8.1,0-14.7,6.6-14.7,14.7c0,7.9,13.6,26.2,14.1,27c0.1,0.2,0.3,0.3,0.6,0.3s0.4-0.1,0.6-0.3
			c0.6-0.8,14.1-19.1,14.1-27C196,16.6,189.4,10,181.3,10z M181.3,31c-3.5,0-6.3-2.8-6.3-6.3s2.8-6.3,6.3-6.3s6.3,2.8,6.3,6.3
			S184.8,31,181.3,31z"/>
		<path fill="#FFFFFF" d="M181.3,62c-17.1,0-31-13.9-31-31s13.9-31,31-31s31,13.9,31,31S198.4,62,181.3,62z M181.3,2
			c-16,0-29,13-29,29s13,29,29,29s29-13,29-29S197.3,2,181.3,2z"/>
	</g>
	<g>
		<g>
			<path fill="#FFFFFF" d="M53.5,14.9H27.6c-0.4,0-0.7,0.3-0.7,0.7v20.3c3.5,0,6.3,2.8,6.3,6.3h7c0-3.5,2.8-6.3,6.3-6.3
				s6.3,2.8,6.3,6.3h0.7c0.4,0,0.7-0.3,0.7-0.7V15.6C54.2,15.2,53.9,14.9,53.5,14.9z"/>
			<path fill="#FFFFFF" d="M25.5,36.1V22.6c0-0.4-0.3-0.7-0.7-0.7h-6.3c-3.5,0-6.3,2.8-6.3,6.3v10.5h9.1c0.1,0,0.2,0,0.3,0.1
				C22.5,37.4,23.9,36.4,25.5,36.1z M19.2,27.5c-0.8,0-1.4,0.6-1.4,1.4v3.5c0,0.4-0.3,0.7-0.7,0.7s-0.7-0.3-0.7-0.7v-3.5
				c0-1.5,1.3-2.8,2.8-2.8h3.5c0.4,0,0.7,0.3,0.7,0.7s-0.3,0.7-0.7,0.7H19.2z"/>
			<path fill="#FFFFFF" d="M12.2,40.1v3.5c0,0.4,0.3,0.7,0.7,0.7H21c-0.2-0.7-0.4-1.4-0.4-2.1s0.1-1.4,0.4-2.1H12.2z"/>
			<path fill="#FFFFFF" d="M46.5,37.3c-2.7,0-4.9,2.2-4.9,4.9s2.2,4.9,4.9,4.9s4.9-2.2,4.9-4.9S49.2,37.3,46.5,37.3z"/>
			<path fill="#FFFFFF" d="M26.9,37.3c-2.7,0-4.9,2.2-4.9,4.9s2.2,4.9,4.9,4.9s4.9-2.2,4.9-4.9S29.6,37.3,26.9,37.3z"/>
		</g>
		<path fill="#FFFFFF" d="M33.2,62c-17.1,0-31-13.9-31-31s13.9-31,31-31s31,13.9,31,31S50.3,62,33.2,62z M33.2,2c-16,0-29,13-29,29
			s13,29,29,29s29-13,29-29S49.2,2,33.2,2z"/>
		<text transform="matrix(1 0 0 1 28.7609 29.541)" fill="#303030" font-family="'MyriadPro-Regular'" font-size="9.7783">home</text>
	</g>
	<path fill="#58595B" d="M61.9,138.4l-18.6-18.6c3.9-4.2,6.3-9.8,6.3-16c0-13.1-10.6-23.7-23.7-23.7c-13.1,0-23.7,10.6-23.7,23.7
		s10.6,23.7,23.7,23.7c6.2,0,11.8-2.4,16-6.3l18.6,18.6c0.2,0.2,0.5,0.3,0.7,0.3c0.3,0,0.5-0.1,0.7-0.3
		C62.3,139.4,62.3,138.7,61.9,138.4z M36.8,118.8c-0.5-0.2-1-0.5-1.6-0.8c-1.5-0.7-2.9-1.4-4.4-2c-0.4-0.2-0.6-0.5-0.6-0.9v-5
		c0-0.4,0.3-0.8,0.6-0.9c0,0,1.6-0.9,1.6-5.4c0-0.6,0.4-1,1-1c0.2-0.1,0.8-1.3,0.6-2.4c-0.1-0.7-0.4-0.7-0.5-0.7c-0.6,0-1-0.4-1-1
		c0-0.3,0.1-0.7,0.4-1.2c0.5-1.1,1.3-2.9,0.8-4.9c-0.5-2.1-3.8-3-6.6-3h0c-2.8,0-6.1,0.9-6.6,3c-0.1,0.5-0.6,0.8-1.2,0.7
		c-0.9-0.2-1.3-0.1-1.4,0c-0.3,0.4,0,1.7,0.9,3.8c0.3,0.8,0.5,1.1,0.5,1.4c0,0.6-0.4,1-1,1c-0.1,0-0.4,0-0.6,0.7
		c-0.2,1.1,0.3,2.2,0.6,2.4c0.6,0,1,0.4,1,1c0,4.5,2.1,5.3,2.2,5.4c0.4,0.1,0.7,0.5,0.7,0.9v5c0,0.4-0.2,0.8-0.6,0.9l-0.5,0.2
		c-2,0.8-4.3,1.7-6.1,2.6l-0.9-1.8c1.9-0.9,4.1-1.8,6.1-2.6v-3.7c-1-0.6-2.7-2.3-2.9-6.2c-1-0.6-1.6-2.1-1.6-3.6
		c0-0.8,0.2-1.5,0.5-2.1c0.2-0.3,0.5-0.6,0.8-0.8c0,0,0,0,0,0c-0.7-1.7-1.9-4.4-0.6-5.9c0.5-0.7,1.4-0.9,2.5-0.9
		c1.3-2.7,5.1-3.7,8.2-3.7h0c3.4,0,7.7,1.2,8.5,4.5c0.6,2.4-0.3,4.6-0.8,5.9c0.3,0.2,0.5,0.4,0.7,0.7c0.3,0.5,0.5,1.2,0.5,2
		c0,1.5-0.6,3-1.6,3.6c-0.1,3.8-1.4,5.5-2.2,6.1v3.8c1.3,0.6,2.7,1.2,3.9,1.8c0.5,0.2,1,0.5,1.5,0.7L36.8,118.8z"/>
	<g>
		<polygon fill="#58595B" points="114,132.1 112.1,138.6 118.6,136.7 		"/>
		
			<rect x="127.8" y="116.4" transform="matrix(-0.7071 -0.7071 0.7071 -0.7071 140.6492 296.2642)" fill="#58595B" width="7.8" height="5.2"/>
		<g>
			<path fill="#58595B" d="M121.5,123.1l-0.5-6.5c0-0.4-0.3-0.8-0.7-0.9l-8.2-2.8c-1.3-0.4-2.6-0.9-4-1.5c-0.5-0.2-0.9-0.4-1.4-0.5
				V106c1.1-0.8,3.3-3,3.6-7.7c0.4-0.2,0.8-0.6,1-1.1c0.3-0.6,0.5-1.4,0.5-2.3c0-1.5-0.5-2.6-1.3-3.2c0.6-1.5,1.7-4.3,1-7.2
				c-0.8-3.3-5.5-4.4-9.3-4.4c-3.4,0-7.6,1-9,3.6c-1.8-0.1-2.8,0.6-3.2,1.2c-1.4,1.8-0.4,5.2,0.1,6.9c0,0,0,0,0,0
				c-0.3,0.2-0.6,0.6-0.8,1c-0.3,0.6-0.5,1.4-0.5,2.2c0,1.6,0.6,2.8,1.5,3.3c0.3,4.9,3.1,7.7,4.2,8.7v3.9c-1.7,0.6-3.4,1.2-5.1,1.8
				c-5.8,1.9-10.9,3.6-11.8,6.4c-1.3,3.8-1.3,10.6-1.3,10.8c0,0.3,0.1,0.5,0.3,0.7c0.2,0.2,0.5,0.3,0.7,0.3h36.4L121.5,123.1z"/>
			
				<rect x="119.2" y="120.1" transform="matrix(0.7071 0.7071 -0.7071 0.7071 126.2884 -49.6446)" fill="#58595B" width="7.8" height="15.1"/>
		</g>
		<line fill="#58595B" x1="125.5" y1="118" x2="125.5" y2="118"/>
		<line fill="#58595B" x1="132.9" y1="125.4" x2="132.9" y2="125.4"/>
	</g>
	<path fill="#58595B" d="M209.3,103.3h-7.4c-0.5-1.7-1.2-3.5-2-5l5.2-5.2c0.2-0.2,0.3-0.4,0.3-0.7c0-0.3-0.1-0.5-0.3-0.7l-7.1-7.1
		c-0.4-0.4-1-0.4-1.4,0l-5.3,5.2c-1.6-0.9-3.7-1.7-5-2.1v-7.4c0-0.6-0.4-1-1-1h-10c-0.6,0-1,0.4-1,1v7.4c-1.4,0.4-3.4,1.2-5,2.1
		l-5.3-5.2c-0.4-0.4-1-0.4-1.4,0l-7.1,7.1c-0.4,0.4-0.4,1,0,1.4l5.3,5.3c-0.8,1.6-1.6,3.6-2,5h-7.4c-0.6,0-1,0.4-1,1v8
		c0,0.6,0.4,1,1,1h7.3c0.4,2.6,1.2,5.2,2.2,7l-5.3,5.3c-0.2,0.2-0.3,0.4-0.3,0.7c0,0.3,0.1,0.5,0.3,0.7l7.1,7.1c0.4,0.4,1,0.4,1.4,0
		l5.3-5.3c1.1,0.6,2.5,1.1,3.7,1.5c0.5,0.2,0.9,0.3,1.3,0.5v7.5c0,0.6,0.4,1,1,1h10c0.6,0,1-0.4,1-1v-7.5c0.4-0.1,0.8-0.3,1.3-0.5
		c1.2-0.4,2.6-0.9,3.7-1.5l5.3,5.3c0.4,0.4,1,0.4,1.4,0l7.1-7.1c0.4-0.4,0.4-1,0-1.4l-5.2-5.2c0.9-1.5,1.7-3.1,2.2-7h7.3
		c0.6,0,1-0.4,1-1v-8C210.3,103.8,209.8,103.3,209.3,103.3z M180.3,119.3c-5.5,0-10-4.5-10-10s4.5-10,10-10s10,4.5,10,10
		S185.8,119.3,180.3,119.3z"/>
	<path fill="#FFFFFF" d="M285,137.6L266.4,119c3.9-4.2,6.3-9.8,6.3-16c0-13.1-10.6-23.7-23.7-23.7c-13.1,0-23.7,10.6-23.7,23.7
		s10.6,23.7,23.7,23.7c6.2,0,11.8-2.4,16-6.3l18.6,18.6c0.2,0.2,0.5,0.3,0.7,0.3s0.5-0.1,0.7-0.3C285.4,138.6,285.4,138,285,137.6z
		 M259.9,118c-0.5-0.2-1-0.5-1.6-0.8c-1.5-0.7-2.9-1.4-4.4-2c-0.4-0.2-0.6-0.5-0.6-0.9v-5c0-0.4,0.3-0.8,0.6-0.9
		c0,0,1.6-0.9,1.6-5.4c0-0.6,0.4-1,1-1c0.2-0.1,0.8-1.3,0.6-2.4c-0.1-0.7-0.4-0.7-0.5-0.7c-0.6,0-1-0.4-1-1c0-0.3,0.1-0.7,0.4-1.2
		c0.5-1.1,1.3-2.9,0.8-4.9c-0.5-2.1-3.8-3-6.6-3h0c-2.8,0-6.1,0.9-6.6,3c-0.1,0.5-0.6,0.8-1.2,0.7c-0.9-0.2-1.3-0.1-1.4,0
		c-0.3,0.4,0,1.7,0.9,3.8c0.3,0.8,0.5,1.1,0.5,1.4c0,0.6-0.4,1-1,1c-0.1,0-0.4,0-0.6,0.7c-0.2,1.1,0.3,2.2,0.6,2.4c0.6,0,1,0.4,1,1
		c0,4.5,2.1,5.3,2.2,5.4c0.4,0.1,0.7,0.5,0.7,0.9v5c0,0.4-0.2,0.8-0.6,0.9l-0.5,0.2c-2,0.8-4.3,1.7-6.1,2.6l-0.9-1.8
		c1.9-0.9,4.1-1.8,6.1-2.6v-3.7c-1-0.6-2.7-2.3-2.9-6.2c-1-0.6-1.6-2.1-1.6-3.6c0-0.8,0.2-1.5,0.5-2.1c0.2-0.3,0.5-0.6,0.8-0.8
		c0,0,0,0,0,0c-0.7-1.7-1.9-4.4-0.6-5.9c0.5-0.7,1.4-0.9,2.5-0.9c1.3-2.7,5.1-3.7,8.2-3.7h0c3.4,0,7.7,1.2,8.5,4.5
		c0.6,2.4-0.3,4.6-0.8,5.9c0.3,0.2,0.5,0.4,0.7,0.7c0.3,0.5,0.5,1.2,0.5,2c0,1.5-0.6,3-1.6,3.6c-0.1,3.8-1.4,5.5-2.2,6.1v3.8
		c1.3,0.6,2.7,1.2,3.9,1.8c0.5,0.2,1,0.5,1.5,0.7L259.9,118z"/>
	<g>
		<polygon fill="#FFFFFF" points="340.6,128.8 338.7,135.5 345.3,133.6 		"/>
		
			<rect x="354.7" y="112.8" transform="matrix(-0.7071 -0.7071 0.7071 -0.7071 530.7448 450.6911)" fill="#FFFFFF" width="8" height="5.3"/>
		<g>
			<path fill="#FFFFFF" d="M348.3,119.6l-0.5-6.6c0-0.4-0.3-0.8-0.7-0.9l-8.4-2.9c-1.4-0.4-2.7-1-4.1-1.5c-0.5-0.2-0.9-0.4-1.4-0.6
				v-5c1.1-0.8,3.4-3.1,3.7-7.9c0.4-0.2,0.8-0.6,1.1-1.2c0.3-0.6,0.5-1.5,0.5-2.3c0-1.5-0.5-2.7-1.3-3.3c0.6-1.6,1.8-4.4,1-7.4
				c-0.8-3.4-5.7-4.5-9.6-4.5c-3.5,0-7.8,1-9.2,3.7c-1.8-0.2-2.8,0.6-3.3,1.2c-1.4,1.9-0.4,5.3,0.1,7.1c0,0,0,0,0,0
				c-0.3,0.2-0.6,0.6-0.8,1c-0.3,0.6-0.5,1.4-0.5,2.3c0,1.6,0.6,2.9,1.6,3.4c0.3,5.1,3.1,7.9,4.3,8.9v4c-1.7,0.6-3.5,1.2-5.3,1.8
				c-6,2-11.2,3.7-12.1,6.6c-1.3,3.9-1.4,10.8-1.4,11.1c0,0.3,0.1,0.5,0.3,0.7c0.2,0.2,0.5,0.3,0.7,0.3h37.3L348.3,119.6z"/>
			
				<rect x="345.9" y="116.5" transform="matrix(0.7071 0.7071 -0.7071 0.7071 190.3464 -211.012)" fill="#FFFFFF" width="8" height="15.5"/>
		</g>
		<line fill="#FFFFFF" x1="352.4" y1="114.4" x2="352.4" y2="114.4"/>
		<line fill="#FFFFFF" x1="360" y1="121.9" x2="360" y2="121.9"/>
	</g>
	<path fill="#FFFFFF" d="M441.5,99.5h-7.4c-0.5-1.7-1.2-3.5-2-5l5.2-5.2c0.2-0.2,0.3-0.4,0.3-0.7c0-0.3-0.1-0.5-0.3-0.7l-7.1-7.1
		c-0.4-0.4-1-0.4-1.4,0l-5.3,5.2c-1.6-0.9-3.7-1.7-5-2.1v-7.4c0-0.6-0.4-1-1-1h-10c-0.6,0-1,0.4-1,1v7.4c-1.4,0.4-3.4,1.2-5,2.1
		l-5.3-5.2c-0.4-0.4-1-0.4-1.4,0l-7.1,7.1c-0.4,0.4-0.4,1,0,1.4l5.3,5.3c-0.8,1.6-1.6,3.6-2,5h-7.4c-0.6,0-1,0.4-1,1v8
		c0,0.6,0.4,1,1,1h7.3c0.4,2.6,1.2,5.2,2.2,7l-5.3,5.3c-0.2,0.2-0.3,0.4-0.3,0.7c0,0.3,0.1,0.5,0.3,0.7l7.1,7.1c0.4,0.4,1,0.4,1.4,0
		l5.3-5.3c1.1,0.6,2.5,1.1,3.7,1.5c0.5,0.2,0.9,0.3,1.3,0.5v7.5c0,0.6,0.4,1,1,1h10c0.6,0,1-0.4,1-1V127c0.4-0.1,0.8-0.3,1.3-0.5
		c1.2-0.4,2.6-0.9,3.7-1.5l5.3,5.3c0.4,0.4,1,0.4,1.4,0l7.1-7.1c0.4-0.4,0.4-1,0-1.4l-5.2-5.2c0.9-1.5,1.7-3.1,2.2-7h7.3
		c0.6,0,1-0.4,1-1v-8C442.5,99.9,442.1,99.5,441.5,99.5z M412.5,115.5c-5.5,0-10-4.5-10-10c0-5.5,4.5-10,10-10s10,4.5,10,10
		C422.5,111,418.1,115.5,412.5,115.5z"/>
</g>
</svg>
